<?xml version="1.0" encoding="UTF-8"?>
<svg version="1.1" xmlns="http://www.w3.org/2000/svg" width="443" height="443">
<path d="M0 0 C0.94037109 0.20367188 1.88074219 0.40734375 2.84960938 0.6171875 C42.37070081 9.2866754 77.90740354 29.11630999 107 57 C107.58539551 57.55284668 108.17079102 58.10569336 108.77392578 58.67529297 C118.63696949 68.02428491 127.10855789 77.94300449 135 89 C135.44682129 89.61810547 135.89364258 90.23621094 136.35400391 90.87304688 C153.5491805 114.84089801 164.69173251 142.29422148 171 171 C171.31541748 172.3607666 171.31541748 172.3607666 171.63720703 173.74902344 C178.09363436 202.46811191 177.61109137 235.37234201 171 264 C170.79632813 264.94037109 170.59265625 265.88074219 170.3828125 266.84960938 C161.7133246 306.37070081 141.88369001 341.90740354 114 371 C113.44715332 371.58539551 112.89430664 372.17079102 112.32470703 372.77392578 C102.97571509 382.63696949 93.05699551 391.10855789 82 399 C81.38189453 399.44682129 80.76378906 399.89364258 80.12695312 400.35400391 C56.15910199 417.5491805 28.70577852 428.69173251 0 435 C-0.90717773 435.21027832 -1.81435547 435.42055664 -2.74902344 435.63720703 C-31.46811191 442.09363436 -64.37234201 441.61109137 -93 435 C-93.94037109 434.79632813 -94.88074219 434.59265625 -95.84960938 434.3828125 C-135.37070081 425.7133246 -170.90740354 405.88369001 -200 378 C-200.58539551 377.44715332 -201.17079102 376.89430664 -201.77392578 376.32470703 C-211.63696949 366.97571509 -220.10855789 357.05699551 -228 346 C-228.67023193 345.0728418 -228.67023193 345.0728418 -229.35400391 344.12695312 C-246.5491805 320.15910199 -257.69173251 292.70577852 -264 264 C-264.21027832 263.09282227 -264.42055664 262.18564453 -264.63720703 261.25097656 C-271.09363436 232.53188809 -270.61109137 199.62765799 -264 171 C-263.69449219 169.58944336 -263.69449219 169.58944336 -263.3828125 168.15039062 C-254.7133246 128.62929919 -234.88369001 93.09259646 -207 64 C-206.44715332 63.41460449 -205.89430664 62.82920898 -205.32470703 62.22607422 C-195.97571509 52.36303051 -186.05699551 43.89144211 -175 36 C-174.0728418 35.32976807 -174.0728418 35.32976807 -173.12695312 34.64599609 C-149.15910199 17.4508195 -121.70577852 6.30826749 -93 0 C-92.09282227 -0.21027832 -91.18564453 -0.42055664 -90.25097656 -0.63720703 C-61.53188809 -7.09363436 -28.62765799 -6.61109137 0 0 Z " fill="#014C9E" transform="translate(268,4)"/>
<path d="M0 0 C0 17.49 0 34.98 0 53 C26.73 53 53.46 53 81 53 C81 86.09090909 81 86.09090909 73.89453125 94.48828125 C73.20746094 95.09027344 72.52039063 95.69226563 71.8125 96.3125 C71.13832031 96.92738281 70.46414063 97.54226562 69.76953125 98.17578125 C61.32439967 103.73837145 53.49906794 104.56239911 43.5546875 104.390625 C42.30366241 104.38496521 41.05263733 104.37930542 39.76370239 104.37347412 C36.47221292 104.35500183 33.18153947 104.31920329 29.89031982 104.2746582 C26.51812616 104.23339813 23.14581199 104.21539825 19.7734375 104.1953125 C13.18197825 104.15140629 6.59105571 104.0846151 0 104 C0.06138444 116.96165406 0.13861501 129.92310964 0.23571491 142.88454819 C0.28031892 148.90397537 0.31959692 154.92333641 0.34643555 160.94287109 C0.37256805 166.75908255 0.41304045 172.57503816 0.46318626 178.39109039 C0.47978789 180.60284476 0.49134369 182.81464332 0.49761391 185.02645111 C0.35413664 204.77153986 0.35413664 204.77153986 7 223.125 C7.495 224.01445312 7.99 224.90390625 8.5 225.8203125 C9.97374044 228.25041428 9.97374044 228.25041428 13 230 C13 230.66 13 231.32 13 232 C13.845625 232.268125 14.69125 232.53625 15.5625 232.8125 C19 234 19 234 21.9140625 235.546875 C27.31014422 237.86557608 33.03733919 237.48692904 38.8125 237.4375 C40.00705811 237.43210205 41.20161621 237.4267041 42.43237305 237.42114258 C53.23919779 237.23726157 64.4431337 236.32203988 74.23046875 231.36328125 C77 230 77 230 81 230 C81.07505712 233.94684991 81.12902215 237.89341427 81.16479492 241.84082031 C81.18701479 243.83152905 81.22516595 245.82203968 81.26367188 247.8125 C81.32124246 255.41181664 80.78825267 261.89367547 78 269 C77.34 269 76.68 269 76 269 C75.835 269.680625 75.67 270.36125 75.5 271.0625 C71.93942086 278.03530082 64.99683939 282.01002742 58 285 C57.175 285.37125 56.35 285.7425 55.5 286.125 C49.1762297 288.33831961 43.46111704 289.3039722 36.80859375 289.265625 C36.05965347 289.26753845 35.3107132 289.2694519 34.53907776 289.27142334 C32.96851258 289.27277416 31.39793581 289.26915552 29.82739258 289.26074219 C27.44000945 289.25001128 25.05337602 289.26068267 22.66601562 289.2734375 C21.13020669 289.272116 19.59439822 289.26955381 18.05859375 289.265625 C17.00205849 289.27169769 17.00205849 289.27169769 15.92417908 289.27789307 C11.30269338 289.23468968 7.3874833 288.41086899 3 287 C1.39978101 286.68739908 -0.20429212 286.39349126 -1.8125 286.125 C-15.86641128 283.33115017 -28.57169269 275.74336672 -38 265 C-38.77150391 264.16082031 -38.77150391 264.16082031 -39.55859375 263.3046875 C-41.88461615 260.68214667 -43.5908153 258.54626743 -44 255 C-44.66 255 -45.32 255 -46 255 C-51.69086358 242.85949103 -56.39211901 230.60351327 -56 217 C-56.66 217 -57.32 217 -58 217 C-57.9371582 218.15935059 -57.87431641 219.31870117 -57.80957031 220.51318359 C-57.59078465 224.85448041 -57.4540755 229.1953034 -57.34082031 233.54052734 C-57.28082032 235.41310783 -57.19917951 237.28513421 -57.09472656 239.15576172 C-56.20430545 255.52379686 -56.20430545 255.52379686 -60.51586914 260.37988281 C-63.40978376 263.02678111 -66.61413799 265.02606247 -70 267 C-71.9823855 268.32854289 -73.96210281 269.66108834 -75.9375 271 C-78.43324563 272.56595804 -80.76741868 273.90711261 -83.50390625 275 C-86.06734391 275.94981437 -86.06734391 275.94981437 -88.5 277.50390625 C-92.72879374 280.034575 -97.34785548 281.42570014 -102 283 C-103.02738281 283.35449219 -104.05476563 283.70898438 -105.11328125 284.07421875 C-118.23851657 288.38519348 -131.22411501 289.39316777 -144.93041992 289.42553711 C-147.30036773 289.43743907 -149.66770586 289.48683221 -152.03710938 289.53710938 C-163.00634655 289.65144476 -172.75195625 288.00749901 -183 284 C-183.66 283.34 -184.32 282.68 -185 282 C-185.969375 281.62875 -186.93875 281.2575 -187.9375 280.875 C-204.30264841 274.07036449 -217.40760429 257.97435805 -224.26953125 242.0546875 C-230.72355406 224.69892579 -231.91087852 205.06794478 -224.1953125 187.8671875 C-221.08824542 181.29505874 -218.0034947 175.34201497 -213 170 C-212.34 170 -211.68 170 -211 170 C-210.78601563 169.4328125 -210.57203125 168.865625 -210.3515625 168.28125 C-206.24944786 161.35744956 -196.34983323 155.98586975 -189 153 C-187.205625 152.25943359 -187.205625 152.25943359 -185.375 151.50390625 C-184.00116095 150.95800669 -182.62614036 150.41507201 -181.25 149.875 C-180.61868164 149.62081299 -179.98736328 149.36662598 -179.33691406 149.10473633 C-169.64948823 145.43367343 -159.60166826 144.69735072 -149.328125 144.8046875 C-148.27969421 144.8075174 -147.23126343 144.81034729 -146.15106201 144.81326294 C-142.85058455 144.82432678 -139.55039339 144.84940432 -136.25 144.875 C-133.99219146 144.88504767 -131.7343786 144.89417036 -129.4765625 144.90234375 C-123.98427974 144.92422064 -118.49216033 144.95755717 -113 145 C-113.05234536 141.33221462 -113.14752842 137.6667003 -113.25 134 C-113.26417969 132.97003906 -113.27835937 131.94007813 -113.29296875 130.87890625 C-113.54127065 123.08222666 -114.94803217 117.87266506 -119.859375 111.640625 C-128.57436944 104.9612497 -141.55061256 105.14245149 -152 106 C-156.45482828 106.65816144 -160.67619517 107.75193958 -165 109 C-165.76393066 109.20931152 -166.52786133 109.41862305 -167.31494141 109.63427734 C-176.943153 112.27339722 -186.03712064 115.00355387 -194.78515625 119.8984375 C-197 121 -197 121 -200 121 C-200.38671875 120.09378906 -200.7734375 119.18757813 -201.171875 118.25390625 C-201.69787322 117.02341893 -202.22391807 115.79295154 -202.75 114.5625 C-203.15835083 113.60549194 -203.15835083 113.60549194 -203.57495117 112.62915039 C-205.10920862 109.04318012 -206.68437477 105.48212688 -208.3125 101.9375 C-209.64149995 98.98171588 -210.5818232 96.2408702 -211 93 C-211.66 93 -212.32 93 -213 93 C-213 91.35 -213 89.7 -213 88 C-209 86 -205 84 -201 82 C-199.94039062 81.40832031 -199.94039062 81.40832031 -198.859375 80.8046875 C-197 80 -197 80 -193 80 C-193 79.34 -193 78.68 -193 78 C-184.83655926 74.77578391 -176.6630118 72.28085343 -168.125 70.25 C-167.24626221 70.03964111 -166.36752441 69.82928223 -165.4621582 69.61254883 C-141.13538166 63.98273637 -113.5210889 64.53471838 -91 76 C-90.34 76.33 -89.68 76.66 -89 77 C-89 77.66 -89 78.32 -89 79 C-88.41605469 79.2784375 -87.83210937 79.556875 -87.23046875 79.84375 C-74.12601688 86.63695097 -65.99239608 98.46451034 -60.875 111.96875 C-59.96334706 115.12697627 -59.63096359 117.97346766 -59.4375 121.25 C-59.28463383 125.27628227 -59.28463383 125.27628227 -58 129 C-57.98969254 128.04723679 -57.97938507 127.09447357 -57.96876526 126.11283875 C-57.87063428 117.09521129 -57.76786627 108.07764676 -57.66066074 99.06012249 C-57.60570336 94.42511367 -57.55232978 89.79009831 -57.50268555 85.1550293 C-57.45463732 80.67458451 -57.40228537 76.19420807 -57.34705925 71.71384621 C-57.32681729 70.01201919 -57.30807666 68.31017358 -57.29092598 66.60831261 C-57.02380768 40.39166325 -57.02380768 40.39166325 -52.5 32 C-52.14615234 31.32138916 -51.79230469 30.64277832 -51.42773438 29.94360352 C-39.4845041 7.83241734 -25.31139935 0 0 0 Z " fill="#FCFDFD" transform="translate(282,69)"/>
<path d="M0 0 C0.66 0 1.32 0 2 0 C2.17015625 1.09957031 2.3403125 2.19914062 2.515625 3.33203125 C3.75413935 11.00577574 5.12307397 18.23074704 8.015625 25.484375 C9.61496422 29.57157522 10.79265828 33.7834505 12 38 C12.66 38 13.32 38 14 38 C14.2475 38.94875 14.495 39.8975 14.75 40.875 C16.21666102 44.54165254 16.68313189 44.37828404 20 46 C21.5703125 47.69921875 21.5703125 47.69921875 23.125 49.6875 C32.36581281 60.56368054 46.30265563 67.30202325 60.3125 69.0625 C66.89473684 69.89473684 66.89473684 69.89473684 68 71 C72.7127935 71.29583686 77.42896177 71.3145892 82.15014648 71.35009766 C83.73167881 71.36642356 85.31314499 71.39339084 86.89428711 71.43212891 C102.09624169 71.80216272 117.35449175 69.82185737 129 59 C130.85081918 56.74472627 132.40145396 54.44777362 134 52 C134.66 52 135.32 52 136 52 C137.97386331 43.96769841 138.41308094 36.12218343 138.625 27.875 C138.66367187 26.63234375 138.70234375 25.3896875 138.7421875 24.109375 C138.83561268 21.07305681 138.92138119 18.0367315 139 15 C142.77863421 13.77187984 144.44564511 14.54424191 148.02001953 16.22119141 C151.53863462 17.60520893 155.19751528 17.83817838 158.9375 18.1875 C159.71673828 18.26935547 160.49597656 18.35121094 161.29882812 18.43554688 C163.19820797 18.63364171 165.09898762 18.81823841 167 19 C167 19.66 167 20.32 167 21 C168.73443359 20.94005859 168.73443359 20.94005859 170.50390625 20.87890625 C174.90037249 20.87987357 178.728737 21.74762022 182.9375 22.9375 C188.63409961 24.46242774 194.11186293 25.57941878 200 26 C198.51012249 30.97401815 196.42914706 35.3754561 194 39.9375 C193.60482178 40.67967773 193.20964355 41.42185547 192.80249023 42.18652344 C183.46311137 59.40984116 171.53223886 74.88106652 158 89 C157.44715332 89.58539551 156.89430664 90.17079102 156.32470703 90.77392578 C146.97571509 100.63696949 137.05699551 109.10855789 126 117 C125.0728418 117.67023193 125.0728418 117.67023193 124.12695312 118.35400391 C100.15910199 135.5491805 72.70577852 146.69173251 44 153 C43.09282227 153.21027832 42.18564453 153.42055664 41.25097656 153.63720703 C12.53188809 160.09363436 -20.37234201 159.61109137 -49 153 C-49.94037109 152.79632813 -50.88074219 152.59265625 -51.84960938 152.3828125 C-91.37070081 143.7133246 -126.90740354 123.88369001 -156 96 C-156.58539551 95.44715332 -157.17079102 94.89430664 -157.77392578 94.32470703 C-167.63696949 84.97571509 -176.10855789 75.05699551 -184 64 C-184.44682129 63.38189453 -184.89364258 62.76378906 -185.35400391 62.12695312 C-190.87943742 54.42521379 -195.56764388 46.3762663 -200 38 C-200.46937988 37.11538086 -200.93875977 36.23076172 -201.42236328 35.31933594 C-203.85955365 30.60271376 -205.7643507 26.1672607 -207 21 C-202.54246592 18.57050549 -198.16717196 17.08825238 -193.25 15.9375 C-192.54697754 15.76831055 -191.84395508 15.59912109 -191.11962891 15.42480469 C-189.08202085 14.93937041 -187.04198623 14.4666359 -185 14 C-183.99195313 13.76925781 -182.98390625 13.53851563 -181.9453125 13.30078125 C-177.5221568 12.35296217 -173.54407289 11.9218784 -169 12 C-168.65388672 13.23363281 -168.65388672 13.23363281 -168.30078125 14.4921875 C-165.82954813 22.95103287 -162.74170438 30.46200655 -158.1875 38 C-157 40 -157 40 -157 42 C-156.01 42.33 -155.02 42.66 -154 43 C-152.5625 44.53125 -152.5625 44.53125 -151 46.5 C-144.23335592 54.49039887 -135.82127173 61.25856315 -126 65 C-124.96875 65.474375 -123.9375 65.94875 -122.875 66.4375 C-112.69535834 70.70203552 -103.2489926 71.47726476 -92.35083008 71.39111328 C-89.96571186 71.37518836 -87.58232895 71.39094769 -85.19726562 71.41015625 C-71.31841298 71.42812952 -56.98198307 70.24437727 -44 65 C-42.7347515 64.51464238 -41.46908434 64.0303755 -40.203125 63.546875 C-38.82233801 63.01190784 -37.44213223 62.47543818 -36.0625 61.9375 C-35.39839111 61.6799292 -34.73428223 61.4223584 -34.05004883 61.15698242 C-31.22562983 60.02918509 -29.17365969 59.17365969 -27 57 C-26.05125 56.62875 -25.1025 56.2575 -24.125 55.875 C-18.27275829 53.46309285 -13.09418924 49.7101812 -8 46 C-7.40646225 45.60330612 -6.8129245 45.20661224 -6.20140076 44.79789734 C-3.489106 42.79838817 -1.37897597 41.20816646 -0.34744263 37.91966248 C-0.09609979 35.47766929 -0.0561987 33.11856594 -0.09765625 30.6640625 C-0.08536484 29.78471039 -0.07307343 28.90535828 -0.06040955 27.99935913 C-0.02876586 25.2070487 -0.04493022 22.41739108 -0.0625 19.625 C-0.0493859 17.72523596 -0.03314349 15.82549077 -0.01367188 13.92578125 C0.02710798 9.28329068 0.02503509 4.6425833 0 0 Z " fill="#FB000D" transform="translate(224,286)"/>
<path d="M0 0 C0.98608749 0.00212242 0.98608749 0.00212242 1.99209595 0.00428772 C4.07029981 0.00983863 6.14839177 0.0223816 8.2265625 0.03515625 C9.64452968 0.04017761 11.06249857 0.0447394 12.48046875 0.04882812 C15.93753572 0.05979188 19.39453817 0.07702204 22.8515625 0.09765625 C22.96736293 8.25993222 23.05622889 16.42186563 23.11062336 24.58475971 C23.13672897 28.37507938 23.17214241 32.16483753 23.22875977 35.95483398 C23.28304853 39.6117982 23.31297577 43.26822205 23.32594872 46.92555809 C23.33519455 48.32149961 23.3532501 49.71741121 23.38021278 51.11312294 C23.41644951 53.06641472 23.4186044 55.02024917 23.41918945 56.97387695 C23.43584404 58.64266655 23.43584404 58.64266655 23.45283508 60.34516907 C22.8515625 63.09765625 22.8515625 63.09765625 20.53483582 64.87565613 C19.20661552 65.48054619 19.20661552 65.48054619 17.8515625 66.09765625 C16.1190625 66.92716797 16.1190625 66.92716797 14.3515625 67.7734375 C8.663809 69.82215134 2.81679378 69.41840025 -3.1484375 69.28515625 C-4.30472656 69.27162109 -5.46101563 69.25808594 -6.65234375 69.24414062 C-9.48486754 69.20902669 -12.31640057 69.15984625 -15.1484375 69.09765625 C-15.1484375 68.43765625 -15.1484375 67.77765625 -15.1484375 67.09765625 C-16.0353125 67.18015625 -16.9221875 67.26265625 -17.8359375 67.34765625 C-21.98572961 67.03446439 -23.1944333 65.97591675 -26.1484375 63.09765625 C-26.9734375 62.31390625 -27.7984375 61.53015625 -28.6484375 60.72265625 C-35.96457987 51.45554258 -37.29590762 39.45761047 -36.1484375 28.09765625 C-34.64992875 19.02062372 -30.37640825 12.40998244 -23.1484375 6.78515625 C-15.53678787 1.45989568 -9.24994217 -0.03952967 0 0 Z " fill="#FC010F" transform="translate(146.1484375,250.90234375)"/>
<path d="M0 0 C0.98608749 0.00212242 0.98608749 0.00212242 1.99209595 0.00428772 C4.07029981 0.00983863 6.14839177 0.0223816 8.2265625 0.03515625 C9.64452968 0.04017761 11.06249857 0.0447394 12.48046875 0.04882812 C15.93757671 0.05893663 19.39444588 0.07852092 22.8515625 0.09765625 C22.8515625 7.02765625 22.8515625 13.95765625 22.8515625 21.09765625 C20.0465625 21.59265625 17.2415625 22.08765625 14.3515625 22.59765625 C13.48466797 22.75427734 12.61777344 22.91089844 11.72460938 23.07226562 C6.69091474 23.93479354 1.95789349 24.23819747 -3.1484375 24.09765625 C-3.1484375 24.75765625 -3.1484375 25.41765625 -3.1484375 26.09765625 C-9.81169494 28.1799242 -16.41425087 28.51812966 -23.3359375 28.87890625 C-27.31900717 29.10744303 -31.20352804 29.52235695 -35.1484375 30.09765625 C-35.1484375 34.38765625 -35.1484375 38.67765625 -35.1484375 43.09765625 C-35.4784375 43.09765625 -35.8084375 43.09765625 -36.1484375 43.09765625 C-36.56787606 31.44658509 -36.557823 21.33638658 -28.88671875 11.9140625 C-20.62852117 3.28470998 -11.83852998 -0.05059201 0 0 Z " fill="#014FA5" transform="translate(146.1484375,250.90234375)"/>
<path d="M0 0 C12.66970387 0.96355353 12.66970387 0.96355353 18 2 C18 2.66 18 3.32 18 4 C19.20269531 3.91298828 19.20269531 3.91298828 20.4296875 3.82421875 C31.04319047 3.403048 39.95812172 5.81210213 50 9 C50 9.66 50 10.32 50 11 C51.09054687 11.16435547 51.09054687 11.16435547 52.203125 11.33203125 C59.58882317 12.49669904 66.77552138 14.07859611 74 16 C74 16.66 74 17.32 74 18 C61.55255831 23.65010602 49.86717677 25.29806129 36.3125 25.5 C35.17240479 25.53061523 34.03230957 25.56123047 32.85766602 25.59277344 C23.37482095 25.59552189 16.60246373 22.9525239 8.6875 17.875 C4.01752249 12.87921011 0 6.95477434 0 0 Z " fill="#FB010D" transform="translate(285,282)"/>
<path d="M0 0 C2.03125 0.3046875 2.03125 0.3046875 4.5 0.875 C5.72203125 1.14957031 5.72203125 1.14957031 6.96875 1.4296875 C9 2 9 2 10 3 C12.85528607 3.400383 15.69736487 3.7518227 18.5625 4.0625 C19.36880859 4.15337891 20.17511719 4.24425781 21.00585938 4.33789062 C23.00347377 4.56247449 25.0016856 4.78173236 27 5 C27 5.66 27 6.32 27 7 C28.11375 6.938125 29.2275 6.87625 30.375 6.8125 C35.56091969 6.78461871 40.13763334 8.3260705 45 10 C45 10.33 45 10.66 45 11 C39.25 11.125 39.25 11.125 37 10 C35.29636178 9.77377919 33.58671299 9.59111527 31.875 9.4375 C30.96492188 9.35371094 30.05484375 9.26992188 29.1171875 9.18359375 C28.06917969 9.09271484 28.06917969 9.09271484 27 9 C26.67 9.99 26.34 10.98 26 12 C20.39292099 13.01604787 15.2320976 12.95931447 9.5625 12.5625 C6.736875 12.376875 3.91125 12.19125 1 12 C1 18.6 1 25.2 1 32 C0.01 32 -0.98 32 -2 32 C-1.88202982 27.60324012 -1.75780274 23.20671601 -1.62768555 18.81030273 C-1.58428187 17.31360731 -1.54261087 15.81686061 -1.50268555 14.32006836 C-1.44511384 12.17285688 -1.38138284 10.02590479 -1.31640625 7.87890625 C-1.27974854 6.5854126 -1.24309082 5.29191895 -1.20532227 3.95922852 C-1 1 -1 1 0 0 Z " fill="#FA010C" transform="translate(364,300)"/>
<path d="M0 0 C15.51 0 31.02 0 47 0 C46.67 0.66 46.34 1.32 46 2 C31.15 2 16.3 2 1 2 C1.1487186 19.74906789 1.1487186 19.74906789 1.30664062 37.49804688 C1.37305101 44.73199372 1.43835973 51.96593923 1.49731445 59.19995117 C1.544886 65.02898589 1.59722591 70.8579597 1.65294075 76.68692207 C1.67339709 78.9161586 1.69210461 81.14541186 1.70907402 83.37467766 C1.73304571 86.48544264 1.76310978 89.59609129 1.79467773 92.70678711 C1.8004332 93.63826569 1.80618866 94.56974426 1.81211853 95.52944946 C1.45042267 99.58771853 1.45042267 99.58771853 3 103 C4.3750027 103.02065455 5.75088589 102.99106716 7.125 102.9375 C11.51644168 102.8954095 14.9079561 103.38023262 19 105 C19.33 105.99 19.66 106.98 20 108 C21.87387216 108.80212628 21.87387216 108.80212628 24.0625 109.1875 C25.16271484 109.42533203 25.16271484 109.42533203 26.28515625 109.66796875 C26.85105469 109.77753906 27.41695313 109.88710938 28 110 C28 110.66 28 111.32 28 112 C25.36 112 22.72 112 20 112 C20 111.34 20 110.68 20 110 C19.20335937 109.93941406 18.40671875 109.87882812 17.5859375 109.81640625 C7.06151142 108.98418278 7.06151142 108.98418278 2 108 C1.505 108.99 1.505 108.99 1 110 C-0.13534637 104.5623014 -0.13441718 99.29758716 -0.11352539 93.77197266 C-0.11367142 92.75672516 -0.11381744 91.74147766 -0.1139679 90.69546509 C-0.11327321 87.35164222 -0.10550161 84.00787559 -0.09765625 80.6640625 C-0.09579049 78.34093252 -0.09436733 76.01780215 -0.09336853 73.69467163 C-0.08955578 67.58895781 -0.07973609 61.48326788 -0.06866455 55.37756348 C-0.05662226 48.04702752 -0.05204228 40.71648357 -0.04621124 33.38594055 C-0.03652369 22.2572771 -0.0173584 11.12866605 0 0 Z " fill="#024792" transform="translate(283,174)"/>
<path d="M0 0 C12.66970387 0.96355353 12.66970387 0.96355353 18 2 C18 2.66 18 3.32 18 4 C19.20269531 3.91298828 19.20269531 3.91298828 20.4296875 3.82421875 C31.04319047 3.403048 39.95812172 5.81210213 50 9 C50 9.66 50 10.32 50 11 C50.79664063 11.12117188 51.59328125 11.24234375 52.4140625 11.3671875 C62.93848858 13.03163445 62.93848858 13.03163445 68 15 C68 15.33 68 15.66 68 16 C63.71 15.67 59.42 15.34 55 15 C55 14.34 55 13.68 55 13 C54.36497559 13.01571045 53.72995117 13.0314209 53.07568359 13.04760742 C50.1755477 13.1102859 47.27555476 13.14909417 44.375 13.1875 C43.37597656 13.21263672 42.37695312 13.23777344 41.34765625 13.26367188 C35.69194968 13.31985439 31.78903429 13.11368953 27 10 C27 9.67 27 9.34 27 9 C24.03 8.67 21.06 8.34 18 8 C17.34 6.35 16.68 4.7 16 3 C14.68 3 13.36 3 12 3 C11.67 4.32 11.34 5.64 11 7 C10.01 6.67 9.02 6.34 8 6 C8 5.34 8 4.68 8 4 C8.66 4 9.32 4 10 4 C10 3.34 10 2.68 10 2 C7.36 2 4.72 2 2 2 C2 2.66 2 3.32 2 4 C2.66 4 3.32 4 4 4 C4 5.32 4 6.64 4 8 C4.99 8 5.98 8 7 8 C8.6875 9.125 8.6875 9.125 10 11 C10.1875 14.1875 10.1875 14.1875 10 17 C5.97804595 15.51362568 4.7237314 13.34319098 2.75 9.625 C2.22921875 8.66851562 1.7084375 7.71203125 1.171875 6.7265625 C0 4 0 4 0 0 Z " fill="#F5011C" transform="translate(285,282)"/>
<path d="M0 0 C0.12349116 5.92643599 0.21428772 11.85212529 0.2746582 17.77954102 C0.29982071 19.79627525 0.3339543 21.81291813 0.37719727 23.8293457 C0.43777325 26.7263032 0.46619169 29.62205661 0.48828125 32.51953125 C0.51408768 33.42274612 0.5398941 34.325961 0.56648254 35.25654602 C0.56753929 37.6088195 0.52558785 39.70721931 0 42 C-2.85058926 44.54583729 -4.19288163 45 -8 45 C-8 44.34 -8 43.68 -8 43 C-5.03 42.505 -5.03 42.505 -2 42 C-2 31.44 -2 20.88 -2 10 C-9.92 9.67 -17.84 9.34 -26 9 C-26 8.34 -26 7.68 -26 7 C-28.64 7 -31.28 7 -34 7 C-32 5 -32 5 -28.875 4.875 C-27.92625 4.91625 -26.9775 4.9575 -26 5 C-26 4.34 -26 3.68 -26 3 C-22.98017116 2.49317558 -19.95937183 1.99436665 -16.9375 1.5 C-16.08994141 1.35691406 -15.24238281 1.21382813 -14.36914062 1.06640625 C-13.53447266 0.93105469 -12.69980469 0.79570312 -11.83984375 0.65625 C-10.70083618 0.46772461 -10.70083618 0.46772461 -9.53881836 0.27539062 C-6.34911435 -0.07060285 -3.20567548 -0.04112037 0 0 Z " fill="#E60C28" transform="translate(169,272)"/>
<path d="M0 0 C1.22589844 0.01353516 1.22589844 0.01353516 2.4765625 0.02734375 C3.41628906 0.04474609 3.41628906 0.04474609 4.375 0.0625 C4.375 1.3825 4.375 2.7025 4.375 4.0625 C9.82 3.5675 9.82 3.5675 15.375 3.0625 C16.375 6.0625 16.375 6.0625 15.375 13.0625 C8.115 13.0625 0.855 13.0625 -6.625 13.0625 C-6.625 9.1025 -6.625 5.1425 -6.625 1.0625 C-4.21954362 -0.14022819 -2.67503047 -0.03821472 0 0 Z " fill="#0057AB" transform="translate(133.625,198.9375)"/>
<path d="M0 0 C1.32 0.33 2.64 0.66 4 1 C3.67 1.33 3.34 1.66 3 2 C3.66 2.66 4.32 3.32 5 4 C7.00401011 3.69169075 9.00291344 3.35036606 11 3 C14.66819871 2.90413236 18.33129574 2.94124851 22 3 C21.505 1.515 21.505 1.515 21 0 C22.98 0 24.96 0 27 0 C27 0.66 27 1.32 27 2 C14.55255831 7.65010602 2.86717677 9.29806129 -10.6875 9.5 C-12.39764282 9.54592285 -12.39764282 9.54592285 -14.14233398 9.59277344 C-22.07235491 9.59507183 -28.1557477 8.07882663 -35 4 C-35.66 3.34 -36.32 2.68 -37 2 C-34.36 2 -31.72 2 -29 2 C-29 2.66 -29 3.32 -29 4 C-28.113125 3.979375 -27.22625 3.95875 -26.3125 3.9375 C-23.37830369 3.99286219 -20.84506304 4.3305734 -18 5 C-18 4.67 -18 4.34 -18 4 C-9.09 3.01 -9.09 3.01 0 2 C0 1.34 0 0.68 0 0 Z " fill="#F11C29" transform="translate(332,298)"/>
<path d="M0 0 C0 1.65 0 3.3 0 5 C-0.495 3.515 -0.495 3.515 -1 2 C-2.65 2.33 -4.3 2.66 -6 3 C-6.33 3.99 -6.66 4.98 -7 6 C-9.31 5.67 -11.62 5.34 -14 5 C-14 5.99 -14 6.98 -14 8 C-13.01 8 -12.02 8 -11 8 C-11 8.99 -11 9.98 -11 11 C-17.435 11.495 -17.435 11.495 -24 12 C-24 13.32 -24 14.64 -24 16 C-24.66 16 -25.32 16 -26 16 C-26 15.34 -26 14.68 -26 14 C-29.3 14 -32.6 14 -36 14 C-36.66 12.35 -37.32 10.7 -38 9 C-33.54246592 6.57050549 -29.16717196 5.08825238 -24.25 3.9375 C-23.54697754 3.76831055 -22.84395508 3.59912109 -22.11962891 3.42480469 C-20.08202085 2.93937041 -18.04198623 2.4666359 -16 2 C-14.99195312 1.76925781 -13.98390625 1.53851563 -12.9453125 1.30078125 C-8.55744893 0.36052477 -4.51576988 -0.2376721 0 0 Z " fill="#F90116" transform="translate(55,298)"/>
<path d="M0 0 C2.35512796 2.35512796 2.98985883 3.94132974 3.02172852 7.26831055 C2.97459717 8.13238525 2.92746582 8.99645996 2.87890625 9.88671875 C2.83056641 10.82451172 2.78222656 11.76230469 2.73242188 12.72851562 C2.67634766 13.70498047 2.62027344 14.68144531 2.5625 15.6875 C2.51029297 16.67556641 2.45808594 17.66363281 2.40429688 18.68164062 C2.27464936 21.12137111 2.13799193 23.56072725 2 26 C-1.96 26 -5.92 26 -10 26 C-9.67 24.68 -9.34 23.36 -9 22 C-9.99 21.34 -10.98 20.68 -12 20 C-11.67 18.68 -11.34 17.36 -11 16 C-9.68 16 -8.36 16 -7 16 C-7 15.01 -7 14.02 -7 13 C-6.01 13 -5.02 13 -4 13 C-4.66 10.03 -5.32 7.06 -6 4 C-5.01 4 -4.02 4 -3 4 C-3 3.34 -3 2.68 -3 2 C-2.01 2 -1.02 2 0 2 C0 1.34 0 0.68 0 0 Z " fill="#0059B1" transform="translate(166,186)"/>
<path d="M0 0 C0.98608749 0.00212242 0.98608749 0.00212242 1.99209595 0.00428772 C4.07029981 0.00983863 6.14839177 0.0223816 8.2265625 0.03515625 C9.64452968 0.04017761 11.06249857 0.0447394 12.48046875 0.04882812 C15.93757671 0.05893663 19.39444588 0.07852092 22.8515625 0.09765625 C22.8515625 7.02765625 22.8515625 13.95765625 22.8515625 21.09765625 C20.0465625 21.59265625 17.2415625 22.08765625 14.3515625 22.59765625 C13.48466797 22.75427734 12.61777344 22.91089844 11.72460938 23.07226562 C6.69091474 23.93479354 1.95789349 24.23819747 -3.1484375 24.09765625 C-3.1484375 23.43765625 -3.1484375 22.77765625 -3.1484375 22.09765625 C5.2782403 20.71986368 13.31037523 19.86681335 21.8515625 20.09765625 C21.5215625 14.48765625 21.1915625 8.87765625 20.8515625 3.09765625 C16.5593995 3.2123554 12.26814658 3.33910073 7.9765625 3.47265625 C6.77257812 3.50359375 5.56859375 3.53453125 4.328125 3.56640625 C-6.07341242 3.77026503 -6.07341242 3.77026503 -16.1484375 6.09765625 C-17.90411754 8.55514023 -17.90411754 8.55514023 -18.1484375 11.09765625 C-18.4784375 10.10765625 -18.8084375 9.11765625 -19.1484375 8.09765625 C-20.2621875 8.77828125 -21.3759375 9.45890625 -22.5234375 10.16015625 C-24.421875 11.3203125 -24.421875 11.3203125 -26.1484375 12.09765625 C-26.8084375 11.76765625 -27.4684375 11.43765625 -28.1484375 11.09765625 C-19.46754759 2.95932196 -11.99153589 -0.05124588 0 0 Z " fill="#124B93" transform="translate(146.1484375,250.90234375)"/>
<path d="M0 0 C3.62498334 -0.02893932 7.24993713 -0.04677792 10.875 -0.0625 C12.42380859 -0.07506836 12.42380859 -0.07506836 14.00390625 -0.08789062 C14.99003906 -0.09111328 15.97617188 -0.09433594 16.9921875 -0.09765625 C18.35899658 -0.10551147 18.35899658 -0.10551147 19.75341797 -0.11352539 C22 0 22 0 24 1 C24 11.56 24 22.12 24 33 C22.35 32.67 20.7 32.34 19 32 C19 22.1 19 12.2 19 2 C18.01 2.33 17.02 2.66 16 3 C13.26134713 3.07051114 10.54972412 3.09357765 7.8125 3.0625 C7.06291016 3.05798828 6.31332031 3.05347656 5.54101562 3.04882812 C3.69397617 3.03706354 1.84697787 3.01912865 0 3 C0 2.01 0 1.02 0 0 Z " fill="#FD0004" transform="translate(143,281)"/>
<path d="M0 0 C1.32 0 2.64 0 4 0 C3.93941406 0.65371582 3.87882812 1.30743164 3.81640625 1.98095703 C2.1670536 19.95974562 2.1670536 19.95974562 2 38 C-0.97 38.495 -0.97 38.495 -4 39 C-4.33 39.99 -4.66 40.98 -5 42 C-6.32 41.67 -7.64 41.34 -9 41 C-9 39.68 -9 38.36 -9 37 C-8.34 37 -7.68 37 -7 37 C-6.67 35.35 -6.34 33.7 -6 32 C-6.66 32 -7.32 32 -8 32 C-8 30.68 -8 29.36 -8 28 C-4.04 27.505 -4.04 27.505 0 27 C-0.33 26.01 -0.66 25.02 -1 24 C-1.06802967 22.27204648 -1.08495645 20.54164635 -1.0625 18.8125 C-1.05347656 17.91144531 -1.04445313 17.01039063 -1.03515625 16.08203125 C-1.02355469 15.39496094 -1.01195312 14.70789063 -1 14 C-0.34 14 0.32 14 1 14 C0.835 13.360625 0.67 12.72125 0.5 12.0625 C-0.15932515 8.02413348 -0.08003779 4.08192742 0 0 Z " fill="#0255AC" transform="translate(50,258)"/>
<path d="M0 0 C1.46747681 0.24339111 1.46747681 0.24339111 2.96459961 0.49169922 C7.17562249 1.09036029 11.31900894 1.14420958 15.56640625 1.1328125 C16.76208473 1.13424759 16.76208473 1.13424759 17.98191833 1.13571167 C19.6568103 1.13638835 21.33170496 1.13457002 23.0065918 1.13037109 C25.55849124 1.12500842 28.11021528 1.13033717 30.66210938 1.13671875 C32.29687539 1.13605802 33.93164129 1.13477695 35.56640625 1.1328125 C36.70101036 1.13584885 36.70101036 1.13584885 37.85853577 1.13894653 C42.0156312 1.12068897 45.91865632 0.77578631 50 0 C52.67810075 -0.11196073 55.31732686 -0.04625299 58 0 C58 0.99 58 1.98 58 3 C53.969679 4.98937234 51.55274185 5.07167896 47.1875 4.125 C46.21167969 3.92132813 45.23585937 3.71765625 44.23046875 3.5078125 C43.49441406 3.34023438 42.75835937 3.17265625 42 3 C42 3.66 42 4.32 42 5 C28.8 5 15.6 5 2 5 C2 4.34 2 3.68 2 3 C1.34 3 0.68 3 0 3 C0 2.01 0 1.02 0 0 Z " fill="#EC071E" transform="translate(109,356)"/>
<path d="M0 0 C0.66 0 1.32 0 2 0 C2.17015625 1.09957031 2.3403125 2.19914062 2.515625 3.33203125 C3.77432812 11.12345654 5.20689096 18.38490637 8.1484375 25.75 C9.17489537 28.46210886 9.68873734 31.12082041 10 34 C8.68 34 7.36 34 6 34 C6 32.02 6 30.04 6 28 C5.34 28 4.68 28 4 28 C3.87882813 28.69867188 3.75765625 29.39734375 3.6328125 30.1171875 C3.46523437 31.02726562 3.29765625 31.93734375 3.125 32.875 C2.88136719 34.23238281 2.88136719 34.23238281 2.6328125 35.6171875 C2 38 2 38 0 40 C0 26.8 0 13.6 0 0 Z " fill="#EE0818" transform="translate(224,286)"/>
<path d="M0 0 C0.33 0 0.66 0 1 0 C2.09041269 21.32104813 2.52321998 42.65834509 3 64 C-6.62992879 69.95037767 -14.81980803 70.40359906 -26.0625 70.1875 C-27.41860486 70.17241956 -28.77472602 70.15873712 -30.13085938 70.14648438 C-33.42099602 70.11135836 -36.71028183 70.0621664 -40 70 C-40 69.34 -40 68.68 -40 68 C-40.66 67.67 -41.32 67.34 -42 67 C-40.68 67 -39.36 67 -38 67 C-38 67.66 -38 68.32 -38 69 C-34.08209601 68.97681983 -30.16697703 68.89900176 -26.25 68.8125 C-24.61224609 68.80379883 -24.61224609 68.80379883 -22.94140625 68.79492188 C-21.30751953 68.75141602 -21.30751953 68.75141602 -19.640625 68.70703125 C-18.16384277 68.68346558 -18.16384277 68.68346558 -16.65722656 68.65942383 C-11.19574193 67.6746795 -6.12266408 65.13444337 -1 63 C-0.67 42.21 -0.34 21.42 0 0 Z " fill="#E2AFAF" transform="translate(169,251)"/>
<path d="M0 0 C2.03125 0.3046875 2.03125 0.3046875 4.5 0.875 C5.72203125 1.14957031 5.72203125 1.14957031 6.96875 1.4296875 C9 2 9 2 10 3 C12.32817964 3.36760731 14.6618385 3.70241581 17 4 C17 4.33 17 4.66 17 5 C15.71802734 5.09087891 15.71802734 5.09087891 14.41015625 5.18359375 C13.30542969 5.26738281 12.20070313 5.35117187 11.0625 5.4375 C9.96035156 5.51871094 8.85820312 5.59992188 7.72265625 5.68359375 C5.08890097 5.70418084 5.08890097 5.70418084 4 7 C7.3 7.66 10.6 8.32 14 9 C13.01 9.33 12.02 9.66 11 10 C11 10.66 11 11.32 11 12 C7.7 12 4.4 12 1 12 C1 18.6 1 25.2 1 32 C0.01 32 -0.98 32 -2 32 C-1.88202982 27.60324012 -1.75780274 23.20671601 -1.62768555 18.81030273 C-1.58428187 17.31360731 -1.54261087 15.81686061 -1.50268555 14.32006836 C-1.44511384 12.17285688 -1.38138284 10.02590479 -1.31640625 7.87890625 C-1.27974854 6.5854126 -1.24309082 5.29191895 -1.20532227 3.95922852 C-1 1 -1 1 0 0 Z " fill="#F4001D" transform="translate(364,300)"/>
<path d="M0 0 C0.6875 1.5625 0.6875 1.5625 1 4 C0.0355414 6.34824702 -0.96514123 8.68191636 -2 11 C-2 12.32 -2 13.64 -2 15 C-1.319375 14.7834375 -0.63875 14.566875 0.0625 14.34375 C8.85713405 11.81763171 16.95011903 11.68991525 26 12 C26 12.66 26 13.32 26 14 C19.33674256 16.08226795 12.73418663 16.42047341 5.8125 16.78125 C1.82943033 17.00978678 -2.05509054 17.4247007 -6 18 C-6 22.29 -6 26.58 -6 31 C-6.33 31 -6.66 31 -7 31 C-7.41589049 19.44748652 -7.25260332 9.50341124 0 0 Z " fill="#0A4F97" transform="translate(117,263)"/>
<path d="M0 0 C1.73830078 0.00386719 1.73830078 0.00386719 3.51171875 0.0078125 C4.66285156 0.00523437 5.81398438 0.00265625 7 0 C9.61173612 0.10842372 11.72229859 0.36221512 14.19921875 1.1328125 C14.19921875 1.7928125 14.19921875 2.4528125 14.19921875 3.1328125 C13.20921875 3.7928125 12.21921875 4.4528125 11.19921875 5.1328125 C11.75609375 5.3803125 12.31296875 5.6278125 12.88671875 5.8828125 C15.59893002 7.34887265 17.8350924 9.16270721 20.19921875 11.1328125 C16.89921875 10.8028125 13.59921875 10.4728125 10.19921875 10.1328125 C10.19921875 9.4728125 10.19921875 8.8128125 10.19921875 8.1328125 C9.66296875 8.10703125 9.12671875 8.08125 8.57421875 8.0546875 C0.1952225 7.44831277 -7.71478472 5.28974706 -15.80078125 3.1328125 C-15.80078125 2.8028125 -15.80078125 2.4728125 -15.80078125 2.1328125 C-14.94613281 2.07222656 -14.09148437 2.01164062 -13.2109375 1.94921875 C-11.55384766 1.82353516 -11.55384766 1.82353516 -9.86328125 1.6953125 C-8.76113281 1.61410156 -7.65898437 1.53289062 -6.5234375 1.44921875 C-3.40608235 1.08694362 -3.16072117 0.14988078 0 0 Z " fill="#154597" transform="translate(352.80078125,290.8671875)"/>
<path d="M0 0 C0 1.65 0 3.3 0 5 C-1.05960938 5.04898437 -2.11921875 5.09796875 -3.2109375 5.1484375 C-4.59898497 5.22346709 -5.98700451 5.29901485 -7.375 5.375 C-8.42300781 5.42140625 -8.42300781 5.42140625 -9.4921875 5.46875 C-13.70185827 5.59499498 -13.70185827 5.59499498 -17 8 C-19.68839385 8.26991906 -22.29141936 8.08737357 -25 8 C-25 7.34 -25 6.68 -25 6 C-27.64 6 -30.28 6 -33 6 C-31 4 -31 4 -27.875 3.875 C-26.92625 3.91625 -25.9775 3.9575 -25 4 C-25 3.34 -25 2.68 -25 2 C-21.39603546 1.66445694 -17.79179755 1.33194526 -14.1875 1 C-13.16333984 0.90460938 -12.13917969 0.80921875 -11.08398438 0.7109375 C-9.60961914 0.57558594 -9.60961914 0.57558594 -8.10546875 0.4375 C-7.19949951 0.35371094 -6.29353027 0.26992188 -5.36010742 0.18359375 C-3 0 -3 0 0 0 Z " fill="#FA001D" transform="translate(168,273)"/>
<path d="M0 0 C0 0.66 0 1.32 0 2 C1.98 2 3.96 2 6 2 C3.7024895 4.2975105 1.41964896 5.51819771 -1.4375 7.0625 C-2.40558594 7.58972656 -3.37367188 8.11695312 -4.37109375 8.66015625 C-7 10 -7 10 -10 11 C-10.28875 11.5775 -10.5775 12.155 -10.875 12.75 C-12.06519922 15.13039843 -13.53704266 16.49904088 -15.4375 18.3203125 C-20.58327948 23.85202544 -24.77128565 30.19162408 -28 37 C-29 34 -29 34 -28.328125 32.1328125 C-27.79445312 31.13894531 -27.79445312 31.13894531 -27.25 30.125 C-26.87617188 29.42632812 -26.50234375 28.72765625 -26.1171875 28.0078125 C-25.56417969 27.01394531 -25.56417969 27.01394531 -25 26 C-24.46375 25.01 -23.9275 24.02 -23.375 23 C-22.92125 22.34 -22.4675 21.68 -22 21 C-21.34 21 -20.68 21 -20 21 C-19.67 20.01 -19.34 19.02 -19 18 C-18.34 18 -17.68 18 -17 18 C-16.731875 17.030625 -16.46375 16.06125 -16.1875 15.0625 C-15.5996875 13.5465625 -15.5996875 13.5465625 -15 12 C-14.01 11.67 -13.02 11.34 -12 11 C-10.28432339 7.49705129 -10.28432339 7.49705129 -9 4 C-8.01 4 -7.02 4 -6 4 C-6 3.34 -6 2.68 -6 2 C-2.25 0 -2.25 0 0 0 Z " fill="#064789" transform="translate(257,67)"/>
<path d="M0 0 C0 0.66 0 1.32 0 2 C1.32 2.33 2.64 2.66 4 3 C4 3.99 4 4.98 4 6 C22.02386816 6.1607679 39.99150604 5.66639049 58 5 C58 5.33 58 5.66 58 6 C47.97519619 7.74955948 38.22591506 8.40155151 28.06958008 8.42553711 C25.69963227 8.43743907 23.33229414 8.48683221 20.96289062 8.53710938 C10.03902337 8.65096006 0.17993637 7.10391222 -10 3 C-10.33 2.34 -10.66 1.68 -11 1 C-7.32589215 -0.17571451 -3.83070817 -0.07366746 0 0 Z " fill="#F8DAD5" transform="translate(109,350)"/>
<path d="M0 0 C5.52109677 -0.35735254 10.14362647 0.95645279 15.375 2.5 C16.20644531 2.73847656 17.03789062 2.97695313 17.89453125 3.22265625 C19.93172576 3.80805697 21.96615549 4.4030645 24 5 C24 5.66 24 6.32 24 7 C24.79664063 7.12117188 25.59328125 7.24234375 26.4140625 7.3671875 C36.93848858 9.03163445 36.93848858 9.03163445 42 11 C42 11.33 42 11.66 42 12 C37.71 11.67 33.42 11.34 29 11 C29 10.34 29 9.68 29 9 C22.07 9 15.14 9 8 9 C8 8.01 8 7.02 8 6 C8.66 5.67 9.32 5.34 10 5 C6.7 4.01 3.4 3.02 0 2 C0 1.34 0 0.68 0 0 Z " fill="#D6122E" transform="translate(311,286)"/>
<path d="M0 0 C0.33 0.66 0.66 1.32 1 2 C1.57105469 1.96970703 2.14210938 1.93941406 2.73046875 1.90820312 C14.23417921 1.31381427 25.73018318 0.88291453 37.25 0.8125 C38.79300781 0.79316406 38.79300781 0.79316406 40.3671875 0.7734375 C41.32367188 0.77214844 42.28015625 0.77085938 43.265625 0.76953125 C44.10899414 0.76542236 44.95236328 0.76131348 45.82128906 0.75708008 C48 1 48 1 51 3 C49.28205099 4.71794901 47.00061587 4.16922129 44.65405273 4.20532227 C43.5129454 4.22526749 42.37183807 4.24521271 41.19615173 4.26576233 C39.9545076 4.28247482 38.71286346 4.29918732 37.43359375 4.31640625 C35.53795433 4.3475779 35.53795433 4.3475779 33.60401917 4.37937927 C30.23881367 4.43383714 26.87359827 4.4840428 23.50830078 4.53222656 C20.07644099 4.58239759 16.64467169 4.63810655 13.21289062 4.69335938 C6.47533239 4.80070191 -0.26229336 4.90244325 -7 5 C-7 4.01 -7 3.02 -7 2 C-4.69 1.34 -2.38 0.68 0 0 Z " fill="#004FAC" transform="translate(304,115)"/>
<path d="M0 0 C0.66 0 1.32 0 2 0 C2.12461569 4.12573806 2.21480904 8.25073131 2.2746582 12.37792969 C2.29963412 13.77851469 2.33362817 15.17897161 2.37719727 16.57910156 C2.83474792 31.67289016 2.83474792 31.67289016 -3 38 C-5.23828125 40.3125 -5.23828125 40.3125 -7.3125 42 C-8.00988281 42.5775 -8.70726562 43.155 -9.42578125 43.75 C-9.94527344 44.1625 -10.46476562 44.575 -11 45 C-11.33 44.34 -11.66 43.68 -12 43 C-12.66 43 -13.32 43 -14 43 C-14 42.34 -14 41.68 -14 41 C-11.03 40.505 -11.03 40.505 -8 40 C-8 39.34 -8 38.68 -8 38 C-7.01 37.34 -6.02 36.68 -5 36 C-3.95107762 34.36368108 -2.95093297 32.69514137 -2 31 C-1.34 30.01 -0.68 29.02 0 28 C0.0207588 25.49091707 0.0207588 25.49091707 -0.375 22.6875 C-2.24202128 4.48404255 -2.24202128 4.48404255 0 0 Z " fill="#F7FDF6" transform="translate(360,124)"/>
<path d="M0 0 C0 0.66 0 1.32 0 2 C-0.99 2.33 -1.98 2.66 -3 3 C-3.33 3.66 -3.66 4.32 -4 5 C-4.99 5 -5.98 5 -7 5 C-7.33 5.99 -7.66 6.98 -8 8 C-10.0625 9.1875 -10.0625 9.1875 -12 10 C-11.34 10.33 -10.68 10.66 -10 11 C-10 12.65 -10 14.3 -10 16 C-12.475 15.505 -12.475 15.505 -15 15 C-15 14.34 -15 13.68 -15 13 C-17.06271639 13.3110685 -19.12516466 13.62391516 -21.1875 13.9375 C-22.33605469 14.11152344 -23.48460937 14.28554688 -24.66796875 14.46484375 C-25.76753906 14.64144531 -26.86710938 14.81804687 -28 15 C-29.41732422 15.21849609 -29.41732422 15.21849609 -30.86328125 15.44140625 C-31.56839844 15.62574219 -32.27351562 15.81007813 -33 16 C-33.33 16.66 -33.66 17.32 -34 18 C-36.64 18 -39.28 18 -42 18 C-39.43327083 16.65687786 -36.9537707 15.60116021 -34.1875 14.75 C-29.74778025 13.3022653 -25.40469227 11.65137329 -21.0625 9.9375 C-20.39951904 9.68000977 -19.73653809 9.42251953 -19.0534668 9.15722656 C-16.22725523 8.03038631 -14.17455281 7.17455281 -12 5 C-9.67328135 3.98470459 -7.3396553 2.98511802 -5 2 C-2 0 -2 0 0 0 Z " fill="#F90115" transform="translate(209,338)"/>
<path d="M0 0 C0.66 1.32 1.32 2.64 2 4 C2.97887441 5.21100989 2.97887441 5.21100989 4.8203125 5.02734375 C5.58085937 4.99769531 6.34140625 4.96804688 7.125 4.9375 C11.51644168 4.8954095 14.9079561 5.38023262 19 7 C19.33 7.99 19.66 8.98 20 10 C21.87387216 10.80212628 21.87387216 10.80212628 24.0625 11.1875 C24.79597656 11.34605469 25.52945312 11.50460937 26.28515625 11.66796875 C26.85105469 11.77753906 27.41695313 11.88710938 28 12 C28 12.66 28 13.32 28 14 C25.36 14 22.72 14 20 14 C20 13.34 20 12.68 20 12 C19.20335937 11.93941406 18.40671875 11.87882812 17.5859375 11.81640625 C7.06151142 10.98418278 7.06151142 10.98418278 2 10 C1.67 10.66 1.34 11.32 1 12 C0.67 8.04 0.34 4.08 0 0 Z " fill="#0B4B99" transform="translate(283,272)"/>
<path d="M0 0 C2.89453125 2.45703125 2.89453125 2.45703125 5 5 C5 5.99 5 6.98 5 8 C4.113125 7.401875 3.22625 6.80375 2.3125 6.1875 C0.6728125 5.1046875 0.6728125 5.1046875 -1 4 C-1.721875 3.46375 -2.44375 2.9275 -3.1875 2.375 C-7.55898735 0.23782841 -12.21599961 -0.28784583 -17 -1 C-17 -0.34 -17 0.32 -17 1 C-19.64 1 -22.28 1 -25 1 C-25 0.34 -25 -0.32 -25 -1 C-27.64 -1 -30.28 -1 -33 -1 C-33 -1.66 -33 -2.32 -33 -3 C-22.91789958 -6.36070014 -9.46427119 -4.31768712 0 0 Z " fill="#18599F" transform="translate(160,178)"/>
<path d="M0 0 C-0.66 1.98 -1.32 3.96 -2 6 C-0.68 6 0.64 6 2 6 C2.33 4.35 2.66 2.7 3 1 C3.66 1 4.32 1 5 1 C5 2.65 5 4.3 5 6 C6.32 6.66 7.64 7.32 9 8 C6.75113762 8.50509208 4.50086131 9.00389179 2.25 9.5 C0.99703125 9.7784375 -0.2559375 10.056875 -1.546875 10.34375 C-5 11 -5 11 -9 11 C-10.38609004 7.84979535 -9.89180331 6.68081978 -8.75 3.3125 C-6.37512088 -1.18280691 -4.57476982 -1.41975615 0 0 Z " fill="#0055B2" transform="translate(124,267)"/>
<path d="M0 0 C0.33 0 0.66 0 1 0 C1 20.46 1 40.92 1 62 C-0.74201149 58.51597701 -2.03869822 55.25185225 -3.25 51.5625 C-3.62640625 50.45003906 -4.0028125 49.33757812 -4.390625 48.19140625 C-5.06806862 44.6435124 -4.66797086 43.1421282 -3 40 C-2.34 40 -1.68 40 -1 40 C-0.67 26.8 -0.34 13.6 0 0 Z " fill="#045092" transform="translate(223,130)"/>
<path d="M0 0 C0.33 0 0.66 0 1 0 C0.67 29.7 0.34 59.4 0 90 C-2.76491282 84.47017435 -3.09858498 82.11226863 -3 76 C-2.67 76 -2.34 76 -2 76 C-1.98969254 75.15110703 -1.97938507 74.30221405 -1.96876526 73.42759705 C-1.87059875 65.40941412 -1.76805792 57.39130146 -1.66066074 49.37323666 C-1.6056058 45.25153588 -1.55221475 41.12982782 -1.50268555 37.00805664 C-1.45478356 33.02687823 -1.40243342 29.04578042 -1.34705925 25.06469917 C-1.32675213 23.54936302 -1.30802074 22.03400487 -1.29092598 20.51862907 C-1.26662198 18.38855967 -1.23660614 16.25863892 -1.20532227 14.12866211 C-1.18977798 12.9184288 -1.1742337 11.7081955 -1.15821838 10.46128845 C-0.99633254 6.91976815 -0.55809418 3.49915804 0 0 Z " fill="#7DA3C7" transform="translate(225,112)"/>
<path d="M0 0 C0.66 0 1.32 0 2 0 C2 0.99 2 1.98 2 3 C2.99 3 3.98 3 5 3 C5.28875 3.804375 5.5775 4.60875 5.875 5.4375 C6.73262568 8.1326468 6.73262568 8.1326468 9 9 C9 9.66 9 10.32 9 11 C9.66 11 10.32 11 11 11 C11 11.99 11 12.98 11 14 C11.928125 13.01 11.928125 13.01 12.875 12 C15 10 15 10 17 10 C17.66 11.32 18.32 12.64 19 14 C17.35 14.33 15.7 14.66 14 15 C14 15.66 14 16.32 14 17 C15.65 17.33 17.3 17.66 19 18 C19.33 18.99 19.66 19.98 20 21 C20.99 20.67 21.98 20.34 23 20 C23.66 21.98 24.32 23.96 25 26 C17.28442924 23.82999572 11.81409126 17.05200044 7 11 C6.4225 10.46375 5.845 9.9275 5.25 9.375 C3.70324574 7.67357031 3.38597553 6.23865805 3 4 C2.34 4 1.68 4 1 4 C0.67 2.68 0.34 1.36 0 0 Z " fill="#FAE0E0" transform="translate(235,320)"/>
<path d="M0 0 C0 0.33 0 0.66 0 1 C-5.75 1.125 -5.75 1.125 -8 0 C-8 0.66 -8 1.32 -8 2 C-4.7 2.33 -1.4 2.66 2 3 C2 3.66 2 4.32 2 5 C-1.74360517 5.95989876 -4.01902341 5.99532211 -7.8125 5.0625 C-14.32458634 3.52860386 -20.9007652 3.53856178 -27.5625 3.375 C-28.85736328 3.33632812 -30.15222656 3.29765625 -31.48632812 3.2578125 C-34.65741576 3.16420106 -37.82850755 3.07846597 -41 3 C-41 2.67 -41 2.34 -41 2 C-33.74 1.67 -26.48 1.34 -19 1 C-19 0.67 -19 0.34 -19 0 C-12.41816638 -0.8931507 -6.57849492 -0.95494281 0 0 Z " fill="#2064AE" transform="translate(176,133)"/>
<path d="M0 0 C0.33 0 0.66 0 1 0 C1 28.38 1 56.76 1 86 C0.01 86.495 0.01 86.495 -1 87 C-1.33 84.03 -1.66 81.06 -2 78 C-1.67 78 -1.34 78 -1 78 C-0.67 52.26 -0.34 26.52 0 0 Z " fill="#E5F5FC" transform="translate(225,120)"/>
<path d="M0 0 C6.625 -0.25 6.625 -0.25 10 2 C10 1.34 10 0.68 10 0 C16.27 0 22.54 0 29 0 C28.67 0.99 28.34 1.98 28 3 C24.98473848 4.18262998 22.00443939 4.11630488 18.796875 4.09765625 C17.8171875 4.09443359 16.8375 4.09121094 15.828125 4.08789062 C14.81234375 4.07951172 13.7965625 4.07113281 12.75 4.0625 C11.203125 4.05573242 11.203125 4.05573242 9.625 4.04882812 C7.08327427 4.03706088 4.54166681 4.02062011 2 4 C1.34 2.68 0.68 1.36 0 0 Z " fill="#F90105" transform="translate(133,314)"/>
<path d="M0 0 C0 1.65 0 3.3 0 5 C-0.495 3.515 -0.495 3.515 -1 2 C-4.93075644 2.57452746 -4.93075644 2.57452746 -8 5 C-10.72869407 4.96712417 -13.2966618 4.43602229 -16 4 C-16 4.66 -16 5.32 -16 6 C-17.11375 6.309375 -18.2275 6.61875 -19.375 6.9375 C-22.7945155 7.82326483 -22.7945155 7.82326483 -25 9 C-26.87379605 9.07033769 -28.75001102 9.0843022 -30.625 9.0625 C-31.62789062 9.05347656 -32.63078125 9.04445313 -33.6640625 9.03515625 C-34.43492188 9.02355469 -35.20578125 9.01195312 -36 9 C-35 7 -35 7 -33.30102539 6.34570312 C-32.21035767 6.06629883 -32.21035767 6.06629883 -31.09765625 5.78125 C-30.29416748 5.57201904 -29.49067871 5.36278809 -28.6628418 5.1472168 C-27.804729 4.93363525 -26.94661621 4.72005371 -26.0625 4.5 C-25.1960083 4.27932861 -24.3295166 4.05865723 -23.43676758 3.83129883 C-6.81301479 -0.35857973 -6.81301479 -0.35857973 0 0 Z " fill="#BD1C4A" transform="translate(55,298)"/>
<path d="M0 0 C2.78877083 2.78877083 3.15157432 5.20624813 3.1875 9 C3.20167969 9.680625 3.21585938 10.36125 3.23046875 11.0625 C3 13 3 13 1 16 C0.67 13.36 0.34 10.72 0 8 C-0.99 7.67 -1.98 7.34 -3 7 C-2.835 8.258125 -2.67 9.51625 -2.5 10.8125 C-2.17841759 13.26456585 -2 15.51650694 -2 18 C-5.375 18.125 -5.375 18.125 -9 18 C-9.66 17.34 -10.32 16.68 -11 16 C-9.68 16 -8.36 16 -7 16 C-7 15.01 -7 14.02 -7 13 C-6.01 13 -5.02 13 -4 13 C-4.66 10.03 -5.32 7.06 -6 4 C-5.01 4 -4.02 4 -3 4 C-3 3.34 -3 2.68 -3 2 C-2.01 2 -1.02 2 0 2 C0 1.34 0 0.68 0 0 Z " fill="#0C5DA4" transform="translate(166,186)"/>
<path d="M0 0 C0.66 0.66 1.32 1.32 2 2 C1.38253906 2.95261719 0.76507813 3.90523438 0.12890625 4.88671875 C-2.41145612 9.32871741 -3.20594897 13.81531215 -4.0625 18.8125 C-4.35430611 20.50854339 -4.65719035 22.20272888 -4.97265625 23.89453125 C-5.09906494 24.63550049 -5.22547363 25.37646973 -5.35571289 26.13989258 C-6 28 -6 28 -9 30 C-9.02689216 28.52093108 -9.04634621 27.04172517 -9.0625 25.5625 C-9.07410156 24.73878906 -9.08570312 23.91507812 -9.09765625 23.06640625 C-9 21 -9 21 -8 20 C-7.84170042 18.60755002 -7.72334922 17.21046392 -7.625 15.8125 C-6.95045412 9.26421615 -4.23577274 4.96607838 0 0 Z " fill="#F3FCF9" transform="translate(115,262)"/>
<path d="M0 0 C12.67470944 -0.08171374 25.33004836 0.17641022 38 0.5 C39.95051638 0.54835723 41.9010372 0.5965354 43.8515625 0.64453125 C48.567762 0.76096294 53.28389521 0.87979559 58 1 C58 1.33 58 1.66 58 2 C57.15127319 2.01213028 57.15127319 2.01213028 56.28540039 2.02450562 C50.31376353 2.11159822 44.34241963 2.21112526 38.37109375 2.31738281 C36.15239441 2.3553038 33.93364127 2.39021558 31.71484375 2.421875 C19.00984235 2.60534072 6.56580959 3.00791655 -6 5 C-3.8614515 2.8614515 -2.86724686 2.57344937 0 2 C0 1.34 0 0.68 0 0 Z " fill="#1F5E9C" transform="translate(111,212)"/>
<path d="M0 0 C2.64 0 5.28 0 8 0 C8 0.99 8 1.98 8 3 C6.35 3 4.7 3 3 3 C3 3.66 3 4.32 3 5 C5.31 5 7.62 5 10 5 C9.67 5.66 9.34 6.32 9 7 C0.21156902 7.62774507 -7.60314556 5.30784711 -16 3 C-16 2.67 -16 2.34 -16 2 C-13.36 2 -10.72 2 -8 2 C-8 2.66 -8 3.32 -8 4 C-5.69 4 -3.38 4 -1 4 C-0.67 2.68 -0.34 1.36 0 0 Z " fill="#064C9D" transform="translate(415,305)"/>
<path d="M0 0 C8.58 0 17.16 0 26 0 C26 0.99 26 1.98 26 3 C17.42 3 8.84 3 0 3 C0 2.01 0 1.02 0 0 Z " fill="#CFE5EF" transform="translate(143,248)"/>
<path d="M0 0 C0.66 0 1.32 0 2 0 C1.8570752 0.64686768 1.71415039 1.29373535 1.56689453 1.96020508 C0.07695876 9.28040919 -0.24368002 16.23348171 -0.125 23.6875 C-0.11597656 24.78255859 -0.10695313 25.87761719 -0.09765625 27.00585938 C-0.07438154 29.67081354 -0.04169135 32.33528134 0 35 C-2.97 35.66 -5.94 36.32 -9 37 C-8.67 35.68 -8.34 34.36 -8 33 C-6.02 33 -4.04 33 -2 33 C-2.17273437 32.20464844 -2.34546875 31.40929687 -2.5234375 30.58984375 C-3.11065727 26.16644237 -2.90277877 22.00348814 -2.625 17.5625 C-2.58117188 16.74201172 -2.53734375 15.92152344 -2.4921875 15.07617188 C-1.72500132 1.72500132 -1.72500132 1.72500132 0 0 Z " fill="#0F5496" transform="translate(54,263)"/>
<path d="M0 0 C0 0.99 0 1.98 0 3 C-4.20293979 5.10146989 -6.45668534 4.79432564 -11 4 C-13.60716728 3.8557292 -16.19601836 3.74669905 -18.8046875 3.68359375 C-19.5286673 3.66281265 -20.25264709 3.64203156 -20.99856567 3.62062073 C-23.29062239 3.55571147 -25.58278474 3.49651563 -27.875 3.4375 C-29.43751053 3.39425888 -31.00001072 3.35064289 -32.5625 3.30664062 C-36.37489426 3.20009104 -40.1873938 3.09866205 -44 3 C-44 2.67 -44 2.34 -44 2 C-43.12263184 1.97494385 -42.24526367 1.9498877 -41.34130859 1.92407227 C-38.06482809 1.82854616 -34.78850102 1.72933757 -31.51220703 1.62768555 C-30.09818835 1.58455749 -28.68412498 1.54286832 -27.27001953 1.50268555 C-25.2293556 1.4444425 -23.18891205 1.38090859 -21.1484375 1.31640625 C-19.92302246 1.27974854 -18.69760742 1.24309082 -17.43505859 1.20532227 C-11.50602367 0.85092864 -5.96847225 -0.10290469 0 0 Z " fill="#EF354C" transform="translate(167,356)"/>
<path d="M0 0 C1.64630328 0.14042877 3.29204179 0.28749329 4.9375 0.4375 C6.31228516 0.55931641 6.31228516 0.55931641 7.71484375 0.68359375 C10 1 10 1 11 2 C13.57021843 2.10094226 16.11298032 2.13971237 18.68359375 2.1328125 C19.45429703 2.13376923 20.22500031 2.13472595 21.01905823 2.13571167 C22.65243613 2.13639349 24.28581673 2.13453909 25.91918945 2.13037109 C28.42340172 2.12503007 30.92743403 2.13031224 33.43164062 2.13671875 C35.0156254 2.13605783 36.59961006 2.13477637 38.18359375 2.1328125 C38.9357164 2.13483673 39.68783905 2.13686096 40.4627533 2.13894653 C44.35931999 2.19696364 44.35931999 2.19696364 48 1 C49.99960012 0.960008 52.00047242 0.95653201 54 1 C52 4 52 4 50.18760681 4.38095093 C49.4553035 4.38333771 48.72300018 4.38572449 47.96850586 4.38818359 C47.13681381 4.39764008 46.30512177 4.40709656 45.44822693 4.4168396 C44.54621048 4.41076691 43.64419403 4.40469421 42.71484375 4.3984375 C41.78458878 4.40130768 40.8543338 4.40417786 39.89588928 4.40713501 C37.92122797 4.40917997 35.94654659 4.40362003 33.97192383 4.39111328 C30.9736482 4.37519195 27.97674676 4.39088138 24.97851562 4.41015625 C23.05728872 4.40817142 21.13606267 4.4043228 19.21484375 4.3984375 C18.32699692 4.40451019 17.43915009 4.41058289 16.5243988 4.4168396 C10.52662636 4.35040639 5.568257 3.22172868 0 1 C0 0.67 0 0.34 0 0 Z " fill="#EC5C6D" transform="translate(281,355)"/>
<path d="M0 0 C0.04978833 4.0018325 0.08590164 8.00354265 0.10986328 12.00561523 C0.11986243 13.36437118 0.13346624 14.72310594 0.15087891 16.08178711 C0.17539594 18.04531296 0.18546962 20.00900201 0.1953125 21.97265625 C0.20578613 23.15093994 0.21625977 24.32922363 0.22705078 25.54321289 C-0.02307147 29.35125693 -0.83210274 32.38113496 -2 36 C-2.33 36 -2.66 36 -3 36 C-2.83628906 34.9171875 -2.67257812 33.834375 -2.50390625 32.71875 C-1.82821976 27.31325808 -1.8911014 21.93934383 -1.9375 16.5 C-1.94201172 15.48679687 -1.94652344 14.47359375 -1.95117188 13.4296875 C-1.96285407 10.95306173 -1.97923418 8.47656343 -2 6 C-2.99 6.495 -2.99 6.495 -4 7 C-6.125 6.5625 -6.125 6.5625 -8 6 C-7.67 4.35 -7.34 2.7 -7 1 C-4 0 -4 0 0 0 Z " fill="#FBD6D3" transform="translate(363,299)"/>
<path d="M0 0 C2 2 2 2 2.1953125 4.1640625 C2.17210937 4.97617187 2.14890625 5.78828125 2.125 6.625 C2.10695312 7.44226563 2.08890625 8.25953125 2.0703125 9.1015625 C2.03550781 10.04128906 2.03550781 10.04128906 2 11 C1.34 11 0.68 11 0 11 C0.01571045 12.20124512 0.0314209 13.40249023 0.04760742 14.64013672 C0.10180885 19.08668339 0.13631427 23.53320074 0.16479492 27.97998047 C0.17990395 29.90646267 0.20039214 31.83291035 0.22631836 33.75927734 C0.26260925 36.52450057 0.27970479 39.28927004 0.29296875 42.0546875 C0.30845261 42.9193161 0.32393646 43.7839447 0.33988953 44.67477417 C0.34057617 47.10107422 0.34057617 47.10107422 0 51 C-0.99 51.66 -1.98 52.32 -3 53 C-3 52.34 -3 51.68 -3 51 C-3.66 50.67 -4.32 50.34 -5 50 C-4.01 49.34 -3.02 48.68 -2 48 C-1.67393317 45.04705009 -1.53489907 42.29405206 -1.5234375 39.3359375 C-1.50785797 38.46989899 -1.49227844 37.60386047 -1.47622681 36.71157837 C-1.42860153 33.93272917 -1.40095071 31.15412897 -1.375 28.375 C-1.33834235 25.61747688 -1.29746185 22.86008926 -1.25234985 20.10269165 C-1.2254458 18.3864429 -1.20395868 16.67009761 -1.18881226 14.95370483 C-1.12336944 9.89174442 -0.71589944 5.01273217 0 0 Z " fill="#F3E7E2" transform="translate(224,275)"/>
<path d="M0 0 C-3.47185274 3.47185274 -8.42484221 4.41861301 -13 6 C-13.85335937 6.31710937 -14.70671875 6.63421875 -15.5859375 6.9609375 C-16.36195313 7.24195313 -17.13796875 7.52296875 -17.9375 7.8125 C-18.62714844 8.06644531 -19.31679687 8.32039063 -20.02734375 8.58203125 C-23.32689363 9.2811438 -25.85990428 8.04669857 -29 7 C-28.67 6.01 -28.34 5.02 -28 4 C-22.72 4 -17.44 4 -12 4 C-12 3.34 -12 2.68 -12 2 C-7.8794254 0.00214565 -4.54805635 -0.17835515 0 0 Z " fill="#F3E9E6" transform="translate(193,346)"/>
<path d="M0 0 C0.66 0 1.32 0 2 0 C2.50314563 2.77029586 3.00263838 5.5411652 3.5 8.3125 C3.71462891 9.49102539 3.71462891 9.49102539 3.93359375 10.69335938 C4.06894531 11.45068359 4.20429688 12.20800781 4.34375 12.98828125 C4.46943359 13.68477783 4.59511719 14.38127441 4.72460938 15.09887695 C5 17 5 17 5 20 C4.34 20 3.68 20 3 20 C2.67 18.35 2.34 16.7 2 15 C1.67 23.25 1.34 31.5 1 40 C0.67 40 0.34 40 0 40 C0 26.8 0 13.6 0 0 Z " fill="#E8878D" transform="translate(224,286)"/>
<path d="M0 0 C-2.91175526 1.94117017 -4.72960637 2.51240919 -8.0625 3.3125 C-12.14993109 4.36467464 -12.14993109 4.36467464 -14.625 7.6875 C-14.74875 8.450625 -14.8725 9.21375 -15 10 C-15.33 9.01 -15.66 8.02 -16 7 C-17.11375 7.680625 -18.2275 8.36125 -19.375 9.0625 C-21.2734375 10.22265625 -21.2734375 10.22265625 -23 11 C-23.66 10.67 -24.32 10.34 -25 10 C-17.10789256 2.60114927 -10.99764391 -0.8113016 0 0 Z " fill="#17579B" transform="translate(143,252)"/>
<path d="M0 0 C3.96 0.33 7.92 0.66 12 1 C12 1.33 12 1.66 12 2 C8.7 2 5.4 2 2 2 C2 2.66 2 3.32 2 4 C2.66 4 3.32 4 4 4 C4 5.32 4 6.64 4 8 C4.99 8 5.98 8 7 8 C8.6875 9.125 8.6875 9.125 10 11 C10.1875 14.1875 10.1875 14.1875 10 17 C5.97804595 15.51362568 4.7237314 13.34319098 2.75 9.625 C2.22921875 8.66851562 1.7084375 7.71203125 1.171875 6.7265625 C0 4 0 4 0 0 Z " fill="#E01038" transform="translate(285,282)"/>
<path d="M0 0 C1.65 0 3.3 0 5 0 C2.01587044 2.61111336 -1.00700571 3.7398391 -4.7109375 5.05078125 C-10.58691111 7.48740512 -15.97678167 11.12889596 -21 15 C-20.67 13.02 -20.34 11.04 -20 9 C-18.68 9 -17.36 9 -16 9 C-15.67 7.68 -15.34 6.36 -15 5 C-9.9943454 3.68272247 -5.13503344 2.64187918 0 2 C0 1.34 0 0.68 0 0 Z " fill="#1B5B97" transform="translate(96,219)"/>
<path d="M0 0 C5.52109677 -0.35735254 10.14362647 0.95645279 15.375 2.5 C16.20644531 2.73847656 17.03789062 2.97695313 17.89453125 3.22265625 C19.93172576 3.80805697 21.96615549 4.4030645 24 5 C24 5.66 24 6.32 24 7 C18.66314156 7.28590313 14.94676013 6.85866347 10.03125 4.80078125 C6.76779449 3.51422667 3.41321347 2.79235313 0 2 C0 1.34 0 0.68 0 0 Z " fill="#8B2A65" transform="translate(311,286)"/>
<path d="M0 0 C0 1.65 0 3.3 0 5 C-5.61 5 -11.22 5 -17 5 C-17 4.34 -17 3.68 -17 3 C-15.68 3 -14.36 3 -13 3 C-13 2.34 -13 1.68 -13 1 C-11.39602723 0.83147753 -9.7918131 0.66525114 -8.1875 0.5 C-7.29417969 0.4071875 -6.40085938 0.314375 -5.48046875 0.21875 C-3 0 -3 0 0 0 Z " fill="#F90113" transform="translate(168,273)"/>
<path d="M0 0 C0 0.66 0 1.32 0 2 C1.32 2.33 2.64 2.66 4 3 C4 3.99 4 4.98 4 6 C7.3 6 10.6 6 14 6 C14 6.66 14 7.32 14 8 C8.26715899 8.28892302 3.59092029 7.30247209 -1.875 5.625 C-2.64585938 5.40328125 -3.41671875 5.1815625 -4.2109375 4.953125 C-6.16197948 4.36918638 -8.08447472 3.69160103 -10 3 C-10.33 2.34 -10.66 1.68 -11 1 C-7.32589215 -0.17571451 -3.83070817 -0.07366746 0 0 Z " fill="#F4BFBF" transform="translate(109,350)"/>
<path d="M0 0 C0.33 0 0.66 0 1 0 C1 5.94 1 11.88 1 18 C1.99 18.33 2.98 18.66 4 19 C3.34 19 2.68 19 2 19 C2 20.32 2 21.64 2 23 C3.32 22.67 4.64 22.34 6 22 C7.09658936 25.28976808 6.79953138 26.71303767 6 30 C5.34 30 4.68 30 4 30 C3.67 30.66 3.34 31.32 3 32 C-1.06878901 21.65849461 -0.29610399 10.90421909 0 0 Z " fill="#CFD4E3" transform="translate(53,274)"/>
<path d="M0 0 C2.64 1.65 5.28 3.3 8 5 C8.33 4.01 8.66 3.02 9 2 C10.32 2.33 11.64 2.66 13 3 C12.34 3 11.68 3 11 3 C11 3.66 11 4.32 11 5 C10.34 5 9.68 5 9 5 C9 5.66 9 6.32 9 7 C12.63 7 16.26 7 20 7 C20 8.32 20 9.64 20 11 C12.51226115 10.21181696 5.24371146 7.16247431 -1 3 C-0.67 2.01 -0.34 1.02 0 0 Z " fill="#F8CBD0" transform="translate(261,344)"/>
<path d="M0 0 C-1.875 6.875 -1.875 6.875 -3 8 C-5.33297433 8.04092937 -7.66705225 8.04241723 -10 8 C-10 7.34 -10 6.68 -10 6 C-8.35 6 -6.7 6 -5 6 C-5 5.01 -5 4.02 -5 3 C-8.3 3 -11.6 3 -15 3 C-12.623045 0.623045 -11.31588099 0.44788865 -8.0625 -0.1875 C-7.18722656 -0.36667969 -6.31195313 -0.54585938 -5.41015625 -0.73046875 C-3 -1 -3 -1 0 0 Z " fill="#0151AA" transform="translate(428,302)"/>
<path d="M0 0 C0.99 0.33 1.98 0.66 3 1 C3 1.66 3 2.32 3 3 C4.98 2.67 6.96 2.34 9 2 C5.34502637 6.51496743 -0.43677487 8.1570871 -6 9 C-6.66 7.02 -7.32 5.04 -8 3 C-5.525 3.99 -5.525 3.99 -3 5 C-2.690625 4.360625 -2.38125 3.72125 -2.0625 3.0625 C-1 1 -1 1 0 0 Z " fill="#FBFAF4" transform="translate(88,181)"/>
<path d="M0 0 C0.33 0 0.66 0 1 0 C1.33 9.24 1.66 18.48 2 28 C2.66 27.34 3.32 26.68 4 26 C3.67 29.63 3.34 33.26 3 37 C2.505 35.515 2.505 35.515 2 34 C0.515 34.495 0.515 34.495 -1 35 C-1.495 33.515 -1.495 33.515 -2 32 C-1.67 31.34 -1.34 30.68 -1 30 C-0.84504237 27.75025839 -0.74989072 25.49628464 -0.68359375 23.2421875 C-0.66281265 22.57913605 -0.64203156 21.91608459 -0.62062073 21.23294067 C-0.55520769 19.11373306 -0.49627895 16.994401 -0.4375 14.875 C-0.39430691 13.43878919 -0.35069236 12.00259098 -0.30664062 10.56640625 C-0.19953501 7.04440406 -0.09824425 3.52226175 0 0 Z " fill="#2967A7" transform="translate(363,122)"/>
<path d="M0 0 C-1.27965802 3.14097878 -3.01640847 5.00009979 -5.4375 7.3203125 C-10.58327948 12.85202544 -14.77128565 19.19162408 -18 26 C-19 23 -19 23 -18.328125 21.1328125 C-17.79445312 20.13894531 -17.79445312 20.13894531 -17.25 19.125 C-16.87617188 18.42632812 -16.50234375 17.72765625 -16.1171875 17.0078125 C-15.56417969 16.01394531 -15.56417969 16.01394531 -15 15 C-14.46375 14.01 -13.9275 13.02 -13.375 12 C-12.92125 11.34 -12.4675 10.68 -12 10 C-11.34 10 -10.68 10 -10 10 C-9.67 9.01 -9.34 8.02 -9 7 C-8.34 7 -7.68 7 -7 7 C-6.731875 6.030625 -6.46375 5.06125 -6.1875 4.0625 C-5.5996875 2.5465625 -5.5996875 2.5465625 -5 1 C-2 0 -2 0 0 0 Z " fill="#165189" transform="translate(247,78)"/>
<path d="M0 0 C1.65 0 3.3 0 5 0 C5 0.66 5 1.32 5 2 C5.66 2 6.32 2 7 2 C7 1.34 7 0.68 7 0 C8.32 0.33 9.64 0.66 11 1 C9.04532248 2.33898399 7.0866421 3.67129047 5.125 5 C4.03445312 5.7425 2.94390625 6.485 1.8203125 7.25 C-1 9 -1 9 -3 9 C-2.44271087 5.65626525 -1.64826111 2.96687001 0 0 Z " fill="#F1EEEC" transform="translate(202,334)"/>
<path d="M0 0 C0.66 0 1.32 0 2 0 C0.428995 6.98224443 -4.12750926 12.04426163 -9.9375 16 C-10.618125 16.33 -11.29875 16.66 -12 17 C-12 16.34 -12 15.68 -12 15 C-12.66 15 -13.32 15 -14 15 C-14 14.34 -14 13.68 -14 13 C-12.02 12.67 -10.04 12.34 -8 12 C-8 11.34 -8 10.68 -8 10 C-7.01 9.34 -6.02 8.68 -5 8 C-3.95107762 6.36368108 -2.95093297 4.69514137 -2 3 C-1.34 2.01 -0.68 1.02 0 0 Z " fill="#E1F1F6" transform="translate(360,152)"/>
<path d="M0 0 C0 0.66 0 1.32 0 2 C-0.66 2 -1.32 2 -2 2 C-2 2.66 -2 3.32 -2 4 C-3.89545392 4.48066535 -5.79138039 4.95946743 -7.6875 5.4375 C-9.27111328 5.83775391 -9.27111328 5.83775391 -10.88671875 6.24609375 C-14 7 -14 7 -16.83203125 7.47265625 C-17.54746094 7.64667969 -18.26289063 7.82070313 -19 8 C-19.33 8.66 -19.66 9.32 -20 10 C-22.64 10 -25.28 10 -28 10 C-25.39535473 8.63676695 -22.86614538 7.56464817 -20.0625 6.6875 C-14.86228817 5.00609818 -9.80182157 3.00212575 -4.72265625 0.98828125 C-2 0 -2 0 0 0 Z " fill="#E4354A" transform="translate(195,346)"/>
<path d="M0 0 C2.875 -0.125 2.875 -0.125 6 0 C8 2 8 2 8 6 C8.7425 5.95875 9.485 5.9175 10.25 5.875 C14.21633419 6.05528792 16.22157405 7.22157405 19 10 C18.34 10 17.68 10 17 10 C17 10.66 17 11.32 17 12 C12.90498884 10.56525156 9.7396239 8.56534514 6.25 6 C5.28578125 5.29875 4.3215625 4.5975 3.328125 3.875 C1 2 1 2 0 0 Z " fill="#F6CECC" transform="translate(78,338)"/>
<path d="M0 0 C1.32 0.33 2.64 0.66 4 1 C4 1.66 4 2.32 4 3 C4.66 3 5.32 3 6 3 C6.28875 3.94875 6.5775 4.8975 6.875 5.875 C7.76825109 9.05211578 7.76825109 9.05211578 10 11 C9.67 11.99 9.34 12.98 9 14 C8.34 14 7.68 14 7 14 C2.56080367 9.56080367 1.16376577 6.13621953 0 0 Z " fill="#E81F32" transform="translate(113,300)"/>
<path d="M0 0 C20.0275455 2.07181505 20.0275455 2.07181505 27 4 C27 4.66 27 5.32 27 6 C24.36 6 21.72 6 19 6 C19 5.34 19 4.68 19 4 C17.80503906 3.90912109 17.80503906 3.90912109 16.5859375 3.81640625 C6.06151142 2.98418278 6.06151142 2.98418278 1 2 C0.67 2.66 0.34 3.32 0 4 C0 2.68 0 1.36 0 0 Z " fill="#7D3270" transform="translate(284,280)"/>
<path d="M0 0 C-3.53411321 2.12046792 -6.94393835 2.53199289 -11 3 C-11 3.66 -11 4.32 -11 5 C-11.99 5.33 -12.98 5.66 -14 6 C-14 10.95 -14 15.9 -14 21 C-16 19 -16 19 -16.1953125 15.0859375 C-16.18200376 13.51550649 -16.15813602 11.94513779 -16.125 10.375 C-16.11597656 9.57320313 -16.10695313 8.77140625 -16.09765625 7.9453125 C-16.07406223 5.96341477 -16.03819065 3.98167019 -16 2 C-10.3791074 0.50030807 -5.81316506 -0.20761304 0 0 Z " fill="#AD2D53" transform="translate(127,279)"/>
<path d="M0 0 C0.33 0 0.66 0 1 0 C1 3.63 1 7.26 1 11 C-0.65 11.66 -2.3 12.32 -4 13 C-4.97290766 8.13546169 -4.55758125 5.67274376 -3 1 C-2.34 1.33 -1.68 1.66 -1 2 C-0.67 1.34 -0.34 0.68 0 0 Z " fill="#0052A4" transform="translate(222,159)"/>
<path d="M0 0 C3.3 0 6.6 0 10 0 C10 0.66 10 1.32 10 2 C11.11375 1.938125 12.2275 1.87625 13.375 1.8125 C18.56091969 1.78461871 23.13763334 3.3260705 28 5 C28 5.33 28 5.66 28 6 C22.25 6.125 22.25 6.125 20 5 C18.12728935 4.84442096 16.25151197 4.72476393 14.375 4.625 C9.01873663 4.23134691 4.8941438 3.16471745 0 1 C0 0.67 0 0.34 0 0 Z " fill="#AB235D" transform="translate(381,305)"/>
<path d="M0 0 C0.99 0.33 1.98 0.66 3 1 C3.13690844 8.72772107 2.75166913 16.30881404 2 24 C1.34 24 0.68 24 0 24 C0 16.08 0 8.16 0 0 Z " fill="#0156AE" transform="translate(284,202)"/>
<path d="M0 0 C2.03125 0.3046875 2.03125 0.3046875 4.5 0.875 C5.72203125 1.14957031 5.72203125 1.14957031 6.96875 1.4296875 C9 2 9 2 10 3 C12.32817964 3.36760731 14.6618385 3.70241581 17 4 C17 4.33 17 4.66 17 5 C10.84765625 5.09765625 10.84765625 5.09765625 9 5 C8.67 4.67 8.34 4.34 8 4 C6.00041636 3.95919217 3.99954746 3.95745644 2 4 C2 3.34 2 2.68 2 2 C1.34 2 0.68 2 0 2 C0 10.25 0 18.5 0 27 C-0.33 27 -0.66 27 -1 27 C-1.02886537 22.68751391 -1.04675255 18.37505238 -1.0625 14.0625 C-1.07087891 12.83080078 -1.07925781 11.59910156 -1.08789062 10.33007812 C-1.09111328 9.16025391 -1.09433594 7.99042969 -1.09765625 6.78515625 C-1.10289307 5.70113525 -1.10812988 4.61711426 -1.11352539 3.50024414 C-1 1 -1 1 0 0 Z " fill="#E6596D" transform="translate(364,300)"/>
<path d="M0 0 C1.36318359 0.47566406 1.36318359 0.47566406 2.75390625 0.9609375 C8.0566607 2.4760102 13.45759819 2.46172546 18.9375 2.625 C20.00291016 2.66367187 21.06832031 2.70234375 22.16601562 2.7421875 C24.77717734 2.83586146 27.38834304 2.92158335 30 3 C30 3.33 30 3.66 30 4 C22.74 4.66 15.48 5.32 8 6 C8 5.34 8 4.68 8 4 C6.02 4 4.04 4 2 4 C1.34 2.68 0.68 1.36 0 0 Z " fill="#FBEBE2" transform="translate(301,304)"/>
<path d="M0 0 C6.75 1.75 6.75 1.75 9 4 C5.44181064 6.26273207 2.87452049 6.07331744 -1.25 5.625 C-2.32765625 5.51414063 -3.4053125 5.40328125 -4.515625 5.2890625 C-5.74539062 5.14597656 -5.74539062 5.14597656 -7 5 C-7 4.34 -7 3.68 -7 3 C-4.69 2.34 -2.38 1.68 0 1 C0 0.67 0 0.34 0 0 Z " fill="#F9FCED" transform="translate(176,140)"/>
<path d="M0 0 C1.98 0 3.96 0 6 0 C6 0.66 6 1.32 6 2 C-0.4150557 4.87940913 -5.97047248 6.5464821 -13 7 C-13 6.01 -13 5.02 -13 4 C-9.85069107 2.95023036 -7.61185544 2.89868405 -4.3125 2.9375 C-3.31863281 2.94652344 -2.32476562 2.95554687 -1.30078125 2.96484375 C-0.16189453 2.98224609 -0.16189453 2.98224609 1 3 C0.67 2.01 0.34 1.02 0 0 Z " fill="#D81E35" transform="translate(353,298)"/>
<path d="M0 0 C0.82422508 2.35717874 1.15185353 3.57799821 0.29296875 5.96484375 C-0.07183594 6.61582031 -0.43664062 7.26679688 -0.8125 7.9375 C-3.87589854 13.50027785 -5.26511823 17.89460841 -5.625 24.3125 C-5.69976562 25.56675781 -5.77453125 26.82101562 -5.8515625 28.11328125 C-5.90054688 29.06589844 -5.94953125 30.01851563 -6 31 C-6.33 31 -6.66 31 -7 31 C-7.41589049 19.44748652 -7.25260332 9.50341124 0 0 Z " fill="#647D9F" transform="translate(117,263)"/>
<path d="M0 0 C0.66 0.99 1.32 1.98 2 3 C-2.97737284 8.26179414 -6.71095798 11.15243697 -14 12 C-11.09378023 8.9851365 -8.03566551 6.34394645 -4.75 3.75 C-3.85796875 3.04359375 -2.9659375 2.3371875 -2.046875 1.609375 C-1.03367188 0.81273437 -1.03367188 0.81273437 0 0 Z " fill="#E32635" transform="translate(223,326)"/>
<path d="M0 0 C0.33 0 0.66 0 1 0 C1.33 1.65 1.66 3.3 2 5 C4.64 5 7.28 5 10 5 C9.67 6.32 9.34 7.64 9 9 C2.9453125 9.1953125 2.9453125 9.1953125 1 9 C-1 7 -1 7 -1.1875 3.9375 C-1 1 -1 1 0 0 Z " fill="#0252AD" transform="translate(285,269)"/>
<path d="M0 0 C0 0.33 0 0.66 0 1 C-2.97 1.99 -5.94 2.98 -9 4 C-9 4.33 -9 4.66 -9 5 C-10.258125 5.185625 -11.51625 5.37125 -12.8125 5.5625 C-13.87404297 5.71912109 -13.87404297 5.71912109 -14.95703125 5.87890625 C-17 6 -17 6 -20 5 C-21.33106622 4.65772583 -22.66400079 4.32248257 -24 4 C-21.50276548 3.32114013 -19.00303859 2.65682573 -16.5 2 C-15.80390625 1.80921875 -15.1078125 1.6184375 -14.390625 1.421875 C-9.4587081 0.14322988 -5.09419909 -0.18357474 0 0 Z " fill="#C2E3F2" transform="translate(132,137)"/>
<path d="M0 0 C5.41538462 -0.36923077 5.41538462 -0.36923077 8.375 1.5 C8.91125 1.995 9.4475 2.49 10 3 C9.67 3.66 9.34 4.32 9 5 C7.00854914 5.29382062 5.01463094 5.57988001 3.01171875 5.78125 C0.94173487 6.00633563 -1.00142737 6.41708298 -3 7 C-2.67 6.34 -2.34 5.68 -2 5 C-1.34 5 -0.68 5 0 5 C0 3.35 0 1.7 0 0 Z " fill="#0052AB" transform="translate(143,177)"/>
<path d="M0 0 C1.05543251 3.18769143 0.97424908 4.94786631 -0.25 8.0625 C-0.62898437 9.06990234 -0.62898437 9.06990234 -1.015625 10.09765625 C-2 12 -2 12 -3.56640625 13.453125 C-5.46448594 15.50118919 -5.48815323 16.93651452 -5.6875 19.6875 C-5.75324219 20.49574219 -5.81898438 21.30398437 -5.88671875 22.13671875 C-5.92410156 22.75160156 -5.96148437 23.36648437 -6 24 C-6.33 24 -6.66 24 -7 24 C-8.37327149 14.53968532 -4.49932803 7.96564708 0 0 Z " fill="#C4DFEB" transform="translate(233,95)"/>
<path d="M0 0 C0.33 0.99 0.66 1.98 1 3 C0.34 3 -0.32 3 -1 3 C-1.165 3.680625 -1.33 4.36125 -1.5 5.0625 C-3.71301627 9.39632353 -7.25519489 11.97802936 -11 15 C-11.33 14.34 -11.66 13.68 -12 13 C-12.66 12.67 -13.32 12.34 -14 12 C-12.02 11.67 -10.04 11.34 -8 11 C-8 10.34 -8 9.68 -8 9 C-7.34 9 -6.68 9 -6 9 C-5.67 7.02 -5.34 5.04 -5 3 C-4.34 3 -3.68 3 -3 3 C-1.37485532 1.54166642 -1.37485532 1.54166642 0 0 Z " fill="#FAE0DC" transform="translate(359,335)"/>
<path d="M0 0 C0.598125 0.78375 1.19625 1.5675 1.8125 2.375 C3.91085249 5.14574323 3.91085249 5.14574323 7 7 C7 7.66 7 8.32 7 9 C8.98 9.66 10.96 10.32 13 11 C11.02 11.99 11.02 11.99 9 13 C8.67 12.01 8.34 11.02 8 10 C6.02 10 4.04 10 2 10 C0.39644899 6.49223216 -0.22036864 3.85645121 0 0 Z " fill="#F1DFDC" transform="translate(288,292)"/>
<path d="M0 0 C1.65397835 3.000889 2.52118674 5.76838433 3.1875 9.125 C3.36667969 9.99382812 3.54585938 10.86265625 3.73046875 11.7578125 C4 14 4 14 3 16 C2.34 16 1.68 16 1 16 C1 14.68 1 13.36 1 12 C-0.32 12 -1.64 12 -3 12 C-3 8 -3 8 -1 6 C-0.60235737 4.01178687 -0.26224651 2.01055661 0 0 Z " fill="#E8E5E3" transform="translate(282,274)"/>
<path d="M0 0 C3.97698021 5.96547032 7.58461469 12.92307343 9 20 C8.01 20 7.02 20 6 20 C6 18.35 6 16.7 6 15 C5.34 15 4.68 15 4 15 C2.23537317 11.91190305 2 10.76687864 2 7 C1.01 7 0.02 7 -1 7 C-0.67 4.69 -0.34 2.38 0 0 Z " fill="#306DA3" transform="translate(70,162)"/>
<path d="M0 0 C3.96 1.98 3.96 1.98 8 4 C8 5.32 8 6.64 8 8 C3.375 10.125 3.375 10.125 0 9 C0.33 8.01 0.66 7.02 1 6 C1.66 5.67 2.32 5.34 3 5 C3 4.34 3 3.68 3 3 C2.01 3 1.02 3 0 3 C0 2.01 0 1.02 0 0 Z " fill="#F60109" transform="translate(255,344)"/>
<path d="M0 0 C1.65 0 3.3 0 5 0 C5 0.66 5 1.32 5 2 C9.29 2.33 13.58 2.66 18 3 C18.33 3.99 18.66 4.98 19 6 C16.69 6 14.38 6 12 6 C12 5.67 12 5.34 12 5 C11.38511719 4.86722656 10.77023437 4.73445313 10.13671875 4.59765625 C9.32847656 4.42105469 8.52023437 4.24445313 7.6875 4.0625 C6.88699219 3.88847656 6.08648437 3.71445312 5.26171875 3.53515625 C3 3 3 3 0 2 C0 1.34 0 0.68 0 0 Z " fill="#F60215" transform="translate(335,295)"/>
<path d="M0 0 C1.32 0.33 2.64 0.66 4 1 C4 4.96 4 8.92 4 13 C3.34 13 2.68 13 2 13 C2 11.68 2 10.36 2 9 C1.34 8.67 0.68 8.34 0 8 C0 5.36 0 2.72 0 0 Z " fill="#005CB7" transform="translate(163,193)"/>
<path d="M0 0 C0.33 0 0.66 0 1 0 C1 3.3 1 6.6 1 10 C-0.98 10 -2.96 10 -5 10 C-5 8.02 -5 6.04 -5 4 C-3.35 4 -1.7 4 0 4 C0 2.68 0 1.36 0 0 Z " fill="#0249AA" transform="translate(167,202)"/>
<path d="M0 0 C5.78591511 -0.10477512 11.29309366 0.00749455 17 1 C17 1.66 17 2.32 17 3 C11.68760353 4.36215294 7.12950324 3.75429011 2 2 C1.34 1.34 0.68 0.68 0 0 Z " fill="#12639F" transform="translate(161,135)"/>
<path d="M0 0 C4.35955482 -0.26421544 7.83396708 0.77892139 12 2 C14.32787927 2.36950465 16.66045145 2.71352467 19 3 C19 3.33 19 3.66 19 4 C12.73 4 6.46 4 0 4 C0 2.68 0 1.36 0 0 Z " fill="#034696" transform="translate(135,131)"/>
<path d="M0 0 C0.66 0.66 1.32 1.32 2 2 C1.38125 2.99 0.7625 3.98 0.125 5 C-2.12261959 8.89746801 -3.07617101 12.6118123 -4 17 C-6 14 -6 14 -6 12 C-5.34 12 -4.68 12 -4 12 C-4.268125 11.13375 -4.53625 10.2675 -4.8125 9.375 C-5.01839588 5.66887413 -4.82153412 5.29015261 -2.5625 2.625 C-1.2940625 1.325625 -1.2940625 1.325625 0 0 Z " fill="#E2F7F9" transform="translate(115,262)"/>
<path d="M0 0 C2.64 0 5.28 0 8 0 C8 0.66 8 1.32 8 2 C8.64066406 2.06058594 9.28132813 2.12117188 9.94140625 2.18359375 C14.98423313 2.67209412 19.9912102 3.23779286 25 4 C25 4.33 25 4.66 25 5 C16.21156902 5.62774507 8.39685444 3.30784711 0 1 C0 0.67 0 0.34 0 0 Z " fill="#55397C" transform="translate(399,307)"/>
<path d="M0 0 C-1.27057182 0.47985967 -2.54146848 0.9588593 -3.8125 1.4375 C-4.87404297 1.83775391 -4.87404297 1.83775391 -5.95703125 2.24609375 C-7.62672396 2.86225186 -9.31157704 3.43719235 -11 4 C-11.33 4.99 -11.66 5.98 -12 7 C-14.97 6.505 -14.97 6.505 -18 6 C-18 5.34 -18 4.68 -18 4 C-15.75438718 3.13237686 -13.50473745 2.2807897 -11.25 1.4375 C-10.61578125 1.19064453 -9.9815625 0.94378906 -9.328125 0.68945312 C-5.88990821 -0.58197079 -3.47831118 -1.46686355 0 0 Z " fill="#B5D6E7" transform="translate(107,143)"/>
<path d="M0 0 C3.91939465 3.80411834 7.49102731 7.81576108 11 12 C6.52599758 12.36275695 6.52599758 12.36275695 4.1875 10.75 C3 9 3 9 3 5 C2.34 5 1.68 5 1 5 C0.67 3.35 0.34 1.7 0 0 Z " fill="#E71F32" transform="translate(68,328)"/>
<path d="M0 0 C0.66666667 1.33333333 1.33333333 2.66666667 2 4 C2.53625 4.99 3.0725 5.98 3.625 7 C5 10 5 10 5 14 C3.68 14 2.36 14 1 14 C0.04738513 9.23692563 -0.08333357 4.8333472 0 0 Z " fill="#E4354B" transform="translate(229,306)"/>
<path d="M0 0 C-0.60183749 2.02045442 -1.27306096 4.02111039 -2 6 C-4.49092811 7.24546405 -5.41080733 6.7767578 -8 6 C-7.67 4.35 -7.34 2.7 -7 1 C-4 0 -4 0 0 0 Z " fill="#E9E3E7" transform="translate(363,299)"/>
<path d="M0 0 C3.3 0 6.6 0 10 0 C10 0.66 10 1.32 10 2 C4.77487721 3.46670113 0.4185766 4.22577402 -5 4 C-5 3.34 -5 2.68 -5 2 C-3.35 2 -1.7 2 0 2 C0 1.34 0 0.68 0 0 Z " fill="#73336B" transform="translate(133,275)"/>
<path d="M0 0 C6.79273689 -0.33165262 11.9786115 -0.33098087 18 3 C18.66 3.66 19.32 4.32 20 5 C16.7 4.67 13.4 4.34 10 4 C10 3.34 10 2.68 10 2 C6.7 1.67 3.4 1.34 0 1 C0 0.67 0 0.34 0 0 Z " fill="#2C4A89" transform="translate(353,297)"/>
<path d="M0 0 C0.33 0 0.66 0 1 0 C1.33 3.63 1.66 7.26 2 11 C-0.97 11.66 -3.94 12.32 -7 13 C-6.67 11.68 -6.34 10.36 -6 9 C-4.02 9 -2.04 9 0 9 C-0.185625 7.700625 -0.37125 6.40125 -0.5625 5.0625 C-0.87890625 2.84765625 -0.87890625 2.84765625 -1 1 C-0.67 0.67 -0.34 0.34 0 0 Z " fill="#1C4F83" transform="translate(52,287)"/>
<path d="M0 0 C0 0.66 0 1.32 0 2 C-1.7015625 2.2165625 -1.7015625 2.2165625 -3.4375 2.4375 C-6.80777201 2.61171478 -6.80777201 2.61171478 -8 4 C-10.01594582 4.23427778 -12.038474 4.41336124 -14.0625 4.5625 C-15.16722656 4.64628906 -16.27195313 4.73007812 -17.41015625 4.81640625 C-18.26480469 4.87699219 -19.11945313 4.93757813 -20 5 C-18 3 -18 3 -14.875 2.875 C-13.92625 2.91625 -12.9775 2.9575 -12 3 C-12 2.34 -12 1.68 -12 1 C-7.915021 0.45533613 -4.1274515 0 0 0 Z " fill="#D3133A" transform="translate(155,274)"/>
<path d="M0 0 C-3.33633926 4.14514878 -6.05503765 4.67278196 -11.25 5.25 C-12.51328125 5.39953125 -13.7765625 5.5490625 -15.078125 5.703125 C-16.04234375 5.80109375 -17.0065625 5.8990625 -18 6 C-16.53705616 3.07411232 -14.60481841 2.97798081 -11.5625 1.9375 C-3.1872349 -0.95617047 -3.1872349 -0.95617047 0 0 Z " fill="#C6E3ED" transform="translate(107,219)"/>
<path d="M0 0 C-2.34054554 2.34054554 -4.21475064 2.99321065 -7.3125 4.125 C-8.25738281 4.47820312 -9.20226562 4.83140625 -10.17578125 5.1953125 C-12.94383335 5.98399678 -15.14147629 6.15620348 -18 6 C-18 5.34 -18 4.68 -18 4 C-16.02 4 -14.04 4 -12 4 C-12 3.34 -12 2.68 -12 2 C-7.8794254 0.00214565 -4.54805635 -0.17835515 0 0 Z " fill="#FBDAD9" transform="translate(193,346)"/>
<path d="M0 0 C0 0.66 0 1.32 0 2 C0.66 2.33 1.32 2.66 2 3 C-2.30769231 7.92307692 -2.30769231 7.92307692 -5.8125 8.3125 C-6.534375 8.209375 -7.25625 8.10625 -8 8 C-6.48291727 4.46014029 -4.24676932 0 0 0 Z " fill="#D3E8F0" transform="translate(249,78)"/>
<path d="M0 0 C2.97 0.495 2.97 0.495 6 1 C6 1.66 6 2.32 6 3 C6.99 2.67 7.98 2.34 9 2 C9.66 3.98 10.32 5.96 11 8 C6.40378078 6.5129879 3.53027653 4.20187872 0 1 C0 0.67 0 0.34 0 0 Z " fill="#F7CDCA" transform="translate(249,338)"/>
<path d="M0 0 C0.66 0 1.32 0 2 0 C2.96891192 5.37305699 2.96891192 5.37305699 3 8 C1.5625 10 1.5625 10 0 11 C-1.25664978 8.09399739 -2 6.20395416 -2 3 C-1.34 3 -0.68 3 0 3 C0 2.01 0 1.02 0 0 Z " fill="#E6F4F1" transform="translate(76,165)"/>
<path d="M0 0 C0 0.66 0 1.32 0 2 C1.98 2 3.96 2 6 2 C3.84733158 4.15266842 2.15226256 4.93474462 -0.625 6.125 C-1.44226563 6.47820312 -2.25953125 6.83140625 -3.1015625 7.1953125 C-3.72804687 7.46085937 -4.35453125 7.72640625 -5 8 C-5 7.01 -5 6.02 -5 5 C-4.01 4.67 -3.02 4.34 -2 4 C-2.66 3.67 -3.32 3.34 -4 3 C-4 2.34 -4 1.68 -4 1 C-2 0 -2 0 0 0 Z " fill="#165393" transform="translate(257,67)"/>
<path d="M0 0 C3.1183499 1.85152025 6.22031518 3.7301443 9.3125 5.625 C10.00988281 6.05039062 10.70726563 6.47578125 11.42578125 6.9140625 C11.94527344 7.27242188 12.46476562 7.63078125 13 8 C13 8.33 13 8.66 13 9 C10.69 8.67 8.38 8.34 6 8 C6 7.34 6 6.68 6 6 C4.68 6 3.36 6 2 6 C2 4.68 2 3.36 2 2 C1.34 2 0.68 2 0 2 C0 1.34 0 0.68 0 0 Z " fill="#E4172D" transform="translate(79,340)"/>
<path d="M0 0 C1.09570312 0.00902344 2.19140625 0.01804687 3.3203125 0.02734375 C4.16335938 0.03894531 5.00640625 0.05054688 5.875 0.0625 C6.205 0.7225 6.535 1.3825 6.875 2.0625 C3.905 2.0625 0.935 2.0625 -2.125 2.0625 C-2.125 2.7225 -2.125 3.3825 -2.125 4.0625 C-5.095 3.5675 -5.095 3.5675 -8.125 3.0625 C-8.125 2.4025 -8.125 1.7425 -8.125 1.0625 C-5.36047967 -0.31976016 -3.0788637 -0.03275387 0 0 Z " fill="#015CAF" transform="translate(383.125,297.9375)"/>
<path d="M0 0 C-4 2.66666667 -8 5.33333333 -12 8 C-12 6.35 -12 4.7 -12 3 C-10.75823305 2.29773859 -9.50614401 1.61370891 -8.25 0.9375 C-7.20585938 0.36322266 -7.20585938 0.36322266 -6.140625 -0.22265625 C-3.63859372 -1.1312406 -2.4667645 -0.88336837 0 0 Z " fill="#D7EDF5" transform="translate(129,255)"/>
<path d="M0 0 C0.74958984 0.00451172 1.49917969 0.00902344 2.27148438 0.01367188 C4.11852383 0.02543646 5.96552213 0.04337135 7.8125 0.0625 C7.8125 0.3925 7.8125 0.7225 7.8125 1.0625 C4.1825 1.0625 0.5525 1.0625 -3.1875 1.0625 C-3.1875 1.7225 -3.1875 2.3825 -3.1875 3.0625 C-5.8275 3.0625 -8.4675 3.0625 -11.1875 3.0625 C-11.1875 2.4025 -11.1875 1.7425 -11.1875 1.0625 C-7.42449626 -0.19183458 -3.91539091 -0.04445422 0 0 Z " fill="#477DAE" transform="translate(138.1875,173.9375)"/>
<path d="M0 0 C2.02045442 0.60183749 4.02111039 1.27306096 6 2 C6.33 2.66 6.66 3.32 7 4 C6.113125 3.979375 5.22625 3.95875 4.3125 3.9375 C1.37830369 3.99286219 -1.15493696 4.3305734 -4 5 C-4.33 4.01 -4.66 3.02 -5 2 C-3.35 2 -1.7 2 0 2 C0 1.34 0 0.68 0 0 Z " fill="#EC0F23" transform="translate(92,349)"/>
<path d="M0 0 C0 0.66 0 1.32 0 2 C-0.99 2.33 -1.98 2.66 -3 3 C-3.33 3.66 -3.66 4.32 -4 5 C-4.99 5 -5.98 5 -7 5 C-7.33 5.99 -7.66 6.98 -8 8 C-9.98 8 -11.96 8 -14 8 C-11.47463555 4.21195332 -9.15839211 3.67794769 -5 2 C-2 0 -2 0 0 0 Z " fill="#E34151" transform="translate(209,338)"/>
<path d="M0 0 C-1 1 -1 1 -4.4375 1.375 C-6.2009375 1.684375 -6.2009375 1.684375 -8 2 C-8.99 3.485 -8.99 3.485 -10 5 C-12.64 4.34 -15.28 3.68 -18 3 C-15.03837914 1.37522189 -12.30733073 0.48304114 -9 -0.1875 C-8.154375 -0.36667969 -7.30875 -0.54585938 -6.4375 -0.73046875 C-3.96978589 -1.00334098 -2.34150494 -0.76424119 0 0 Z " fill="#F5C7BF" transform="translate(353,304)"/>
<path d="M0 0 C0.66 0 1.32 0 2 0 C2 0.66 2 1.32 2 2 C2.61875 2.28875 3.2375 2.5775 3.875 2.875 C6 4 6 4 8 6 C7.67 6.66 7.34 7.32 7 8 C3.76912579 7.44295272 1.97638863 6.66812465 0 4 C0 2.68 0 1.36 0 0 Z " fill="#DFF2F5" transform="translate(191,146)"/>
<path d="M0 0 C0.66 0.33 1.32 0.66 2 1 C2.625 3.5625 2.625 3.5625 3 6 C2.34 6 1.68 6 1 6 C0.67 6.66 0.34 7.32 0 8 C-1.98 6.35 -3.96 4.7 -6 3 C-5.34 2.67 -4.68 2.34 -4 2 C-3.01 2.33 -2.02 2.66 -1 3 C-0.67 2.01 -0.34 1.02 0 0 Z " fill="#1B5BA0" transform="translate(205,149)"/>
<path d="M0 0 C0 0.99 0 1.98 0 3 C-1.98 3 -3.96 3 -6 3 C-6 3.66 -6 4.32 -6 5 C-6.66 5 -7.32 5 -8 5 C-8 4.01 -8 3.02 -8 2 C-8.66 1.67 -9.32 1.34 -10 1 C-6.61981469 -0.04005702 -3.5219721 -0.08004482 0 0 Z " fill="#014DAE" transform="translate(135,181)"/>
<path d="M0 0 C0.66 0 1.32 0 2 0 C1.67 2.31 1.34 4.62 1 7 C0.01 7 -0.98 7 -2 7 C-2.33 7.99 -2.66 8.98 -3 10 C-4.32 9.67 -5.64 9.34 -7 9 C-6.57847656 8.51789063 -6.15695312 8.03578125 -5.72265625 7.5390625 C-5.17480469 6.90742188 -4.62695312 6.27578125 -4.0625 5.625 C-3.51722656 4.99851562 -2.97195313 4.37203125 -2.41015625 3.7265625 C-0.93041376 2.04367666 -0.93041376 2.04367666 0 0 Z " fill="#DD3249" transform="translate(358,338)"/>
<path d="M0 0 C2 0 2 0 3.5625 1.5 C4.036875 1.995 4.51125 2.49 5 3 C5.33 3 5.66 3 6 3 C6 5.31 6 7.62 6 10 C3.38275905 7.63202009 1.67138271 5.10399646 0 2 C0 1.34 0 0.68 0 0 Z " fill="#F7E0DD" transform="translate(59,312)"/>
<path d="M0 0 C0.99 0.33 1.98 0.66 3 1 C4.66362417 1.34820041 6.32995171 1.68404492 8 2 C8 2.33 8 2.66 8 3 C2.6787385 4.08318169 -2.63486869 5.152874 -8 6 C-8 5.34 -8 4.68 -8 4 C-4.535 3.505 -4.535 3.505 -1 3 C-0.67 2.01 -0.34 1.02 0 0 Z " fill="#CCE2EF" transform="translate(119,173)"/>
<path d="M0 0 C-4.72593055 1.87407591 -8.94727061 3.27818152 -14 4 C-14.99 4.495 -14.99 4.495 -16 5 C-16 4.01 -16 3.02 -16 2 C-10.71064991 0.06487192 -5.49841672 -1.83280557 0 0 Z " fill="#0D4C8E" transform="translate(97,145)"/>
<path d="M0 0 C1.66519519 0.34060811 3.33157466 0.67558396 5 1 C1.24464902 3.50356732 0.13110586 2.9608592 -4.1875 2.125 C-5.27417969 1.92132813 -6.36085938 1.71765625 -7.48046875 1.5078125 C-8.31191406 1.34023437 -9.14335938 1.17265625 -10 1 C-10 0.67 -10 0.34 -10 0 C-6.28363799 -0.76016496 -3.61877928 -1.16734815 0 0 Z " fill="#105EAC" transform="translate(106,139)"/>
<path d="M0 0 C-0.99 1.485 -0.99 1.485 -2 3 C-5.2578125 3.29296875 -5.2578125 3.29296875 -9.125 3.1875 C-11.04699219 3.14689453 -11.04699219 3.14689453 -13.0078125 3.10546875 C-13.99523437 3.07066406 -14.98265625 3.03585937 -16 3 C-16 2.67 -16 2.34 -16 2 C-10.61972975 0.80911014 -5.54708616 -0.2919519 0 0 Z " fill="#E33C51" transform="translate(335,356)"/>
<path d="M0 0 C1.60407328 -0.02708567 3.2082785 -0.04643483 4.8125 -0.0625 C5.70582031 -0.07410156 6.59914063 -0.08570313 7.51953125 -0.09765625 C10 0 10 0 13 1 C13 1.66 13 2.32 13 3 C11.02013918 2.88652381 9.04108402 2.7589065 7.0625 2.625 C5.96035156 2.55539062 4.85820312 2.48578125 3.72265625 2.4140625 C2.82417969 2.27742188 1.92570312 2.14078125 1 2 C0.67 1.34 0.34 0.68 0 0 Z " fill="#38447F" transform="translate(373,302)"/>
<path d="M0 0 C3.3 0 6.6 0 10 0 C10 0.66 10 1.32 10 2 C7.03 2.66 4.06 3.32 1 4 C0.67 2.68 0.34 1.36 0 0 Z " fill="#024FAC" transform="translate(15,301)"/>
<path d="M0 0 C2 0 2 0 3.625 1.125 C5.55651159 3.75887944 5.21205536 5.81916956 5 9 C3.0625 8.4375 3.0625 8.4375 1 7 C0.25 3.375 0.25 3.375 0 0 Z " fill="#EB0E27" transform="translate(290,290)"/>
<path d="M0 0 C2.44839588 3.67259383 4 6.54648201 4 11 C3.01 11 2.02 11 1 11 C-0.20272819 8.59454362 -0.10071472 7.05003047 -0.0625 4.375 C-0.05347656 3.55773437 -0.04445312 2.74046875 -0.03515625 1.8984375 C-0.02355469 1.27195312 -0.01195312 0.64546875 0 0 Z " fill="#E22135" transform="translate(55,303)"/>
<path d="M0 0 C1.48011371 0.30798326 2.95907325 0.621518 4.4375 0.9375 C5.26121094 1.11152344 6.08492188 1.28554688 6.93359375 1.46484375 C9 2 9 2 10 3 C12.32817964 3.36760731 14.6618385 3.70241581 17 4 C17 4.33 17 4.66 17 5 C10.84765625 5.09765625 10.84765625 5.09765625 9 5 C8.67 4.67 8.34 4.34 8 4 C6.00041636 3.95919217 3.99954746 3.95745644 2 4 C2 3.34 2 2.68 2 2 C1.34 2 0.68 2 0 2 C0 1.34 0 0.68 0 0 Z " fill="#AE2354" transform="translate(364,300)"/>
<path d="M0 0 C-2.62424658 1.74949772 -4.55727216 2.65389981 -7.5 3.625 C-8.66015625 4.01558594 -8.66015625 4.01558594 -9.84375 4.4140625 C-12 5 -12 5 -15 5 C-15 4.34 -15 3.68 -15 3 C-9.89665983 1.094753 -5.53657294 -0.42589023 0 0 Z " fill="#254789" transform="translate(31,302)"/>
<path d="M0 0 C2.31 0.66 4.62 1.32 7 2 C7 3.32 7 4.64 7 6 C5.35 6 3.7 6 2 6 C2 5.01 2 4.02 2 3 C1.34 3 0.68 3 0 3 C0 2.01 0 1.02 0 0 Z " fill="#005FBD" transform="translate(45,290)"/>
<path d="M0 0 C5.28089024 -0.30466674 6.577168 -0.317124 11 3 C7.37 3 3.74 3 0 3 C0 2.01 0 1.02 0 0 Z " fill="#034CAC" transform="translate(303,280)"/>
<path d="M0 0 C0.66 0.33 1.32 0.66 2 1 C0.41641358 4.16717283 -0.45263699 5.73268318 -3.6875 7.3125 C-4.450625 7.539375 -5.21375 7.76625 -6 8 C-6 5 -6 5 -4.125 2.875 C-2 1 -2 1 0 0 Z " fill="#D4E5EC" transform="translate(87,225)"/>
<path d="M0 0 C0.90105469 0.01804687 1.80210937 0.03609375 2.73046875 0.0546875 C3.41753906 0.07789062 4.10460937 0.10109375 4.8125 0.125 C4.4825 1.445 4.1525 2.765 3.8125 4.125 C3.4825 3.795 3.1525 3.465 2.8125 3.125 C0.96358054 2.89136119 -0.89238031 2.71196365 -2.75 2.5625 C-3.76191406 2.47871094 -4.77382813 2.39492187 -5.81640625 2.30859375 C-6.99009766 2.21771484 -6.99009766 2.21771484 -8.1875 2.125 C-4.87379 -0.08414 -3.8428979 -0.09981553 0 0 Z " fill="#F3FAF9" transform="translate(276.1875,69.875)"/>
<path d="M0 0 C0.33 0 0.66 0 1 0 C1 4.62 1 9.24 1 14 C0.01 14.495 0.01 14.495 -1 15 C-1.33 12.03 -1.66 9.06 -2 6 C-1.67 6 -1.34 6 -1 6 C-0.67 4.02 -0.34 2.04 0 0 Z " fill="#E7E9EC" transform="translate(225,192)"/>
<path d="M0 0 C-6 4 -6 4 -9 5 C-11.1875 4.0625 -11.1875 4.0625 -13 3 C-8.44573816 0.33409063 -5.26053037 -0.31563182 0 0 Z " fill="#DFEDF7" transform="translate(92,149)"/>
<path d="M0 0 C4.75 0.875 4.75 0.875 7 2 C7 1.34 7 0.68 7 0 C7.66 0.33 8.32 0.66 9 1 C9 1.99 9 2.98 9 4 C6.1875 4.25 6.1875 4.25 3 4 C1.125 2 1.125 2 0 0 Z " fill="#E72937" transform="translate(122,314)"/>
<path d="M0 0 C1.32 0.66 2.64 1.32 4 2 C3.67 2.66 3.34 3.32 3 4 C0.36 4 -2.28 4 -5 4 C-5 3.01 -5 2.02 -5 1 C-3.68 1 -2.36 1 -1 1 C-0.67 0.67 -0.34 0.34 0 0 Z " fill="#015AAA" transform="translate(396,301)"/>
<path d="M0 0 C0.66 0 1.32 0 2 0 C2.66 3.96 3.32 7.92 4 12 C3.34 12 2.68 12 2 12 C1.67 10.35 1.34 8.7 1 7 C0.67 7 0.34 7 0 7 C0 4.69 0 2.38 0 0 Z " fill="#DB4A57" transform="translate(225,294)"/>
<path d="M0 0 C0 0.66 0 1.32 0 2 C-1.65 2 -3.3 2 -5 2 C-5 2.66 -5 3.32 -5 4 C-7.31 4 -9.62 4 -12 4 C-10.68 3.67 -9.36 3.34 -8 3 C-8 2.34 -8 1.68 -8 1 C-5.29120665 -0.35439668 -2.99066732 -0.06501451 0 0 Z " fill="#154691" transform="translate(133,275)"/>
<path d="M0 0 C0.33 0 0.66 0 1 0 C1.185625 1.2065625 1.185625 1.2065625 1.375 2.4375 C1.58125 3.283125 1.7875 4.12875 2 5 C2.66 5.33 3.32 5.66 4 6 C4 6.99 4 7.98 4 9 C0.125 8.125 0.125 8.125 -1 7 C-1.125 4 -1.125 4 -1 1 C-0.67 0.67 -0.34 0.34 0 0 Z " fill="#0649A9" transform="translate(285,269)"/>
<path d="M0 0 C2.475 0.495 2.475 0.495 5 1 C4.34 2.98 3.68 4.96 3 7 C3.66 7.33 4.32 7.66 5 8 C4.34 8.66 3.68 9.32 3 10 C2.67 8.35 2.34 6.7 2 5 C1.34 5 0.68 5 0 5 C0 3.35 0 1.7 0 0 Z " fill="#D3EBF0" transform="translate(69,157)"/>
<path d="M0 0 C-0.33 0.99 -0.66 1.98 -1 3 C-3.97 3 -6.94 3 -10 3 C-6.84439813 -0.15560187 -4.30999015 -1.43666338 0 0 Z " fill="#003B76" transform="translate(144,15)"/>
<path d="M0 0 C4.62 0.66 9.24 1.32 14 2 C14 2.33 14 2.66 14 3 C9.38 3 4.76 3 0 3 C0 2.01 0 1.02 0 0 Z " fill="#EC0E28" transform="translate(109,356)"/>
<path d="M0 0 C2.64 0 5.28 0 8 0 C8.66 1.65 9.32 3.3 10 5 C2.42857143 3.14285714 2.42857143 3.14285714 0 0 Z " fill="#DC3340" transform="translate(295,300)"/>
<path d="M0 0 C1.32 0 2.64 0 4 0 C4 0.66 4 1.32 4 2 C5.32 2.33 6.64 2.66 8 3 C3.545 3.495 3.545 3.495 -1 4 C-0.67 2.68 -0.34 1.36 0 0 Z " fill="#F3F7F1" transform="translate(125,250)"/>
<path d="M0 0 C0.33 0.66 0.66 1.32 1 2 C0.06553465 4.03144641 -0.93224776 6.03533587 -2 8 C-2.66 8 -3.32 8 -4 8 C-4 8.66 -4 9.32 -4 10 C-4.66 10 -5.32 10 -6 10 C-4.6302836 6.00499382 -2.74277578 3.19990508 0 0 Z " fill="#BADAEA" transform="translate(69,239)"/>
<path d="M0 0 C6.75 1.75 6.75 1.75 9 4 C7.35 4.66 5.7 5.32 4 6 C4 5.01 4 4.02 4 3 C3.01 3 2.02 3 1 3 C0.67 2.01 0.34 1.02 0 0 Z " fill="#E1EDF3" transform="translate(176,140)"/>
<path d="M0 0 C0.99 0.33 1.98 0.66 3 1 C4.1875 3.5625 4.1875 3.5625 5 6 C2.03 5.505 2.03 5.505 -1 5 C-1 4.34 -1 3.68 -1 3 C-0.34 3 0.32 3 1 3 C0.67 2.01 0.34 1.02 0 0 Z " fill="#EEFEFA" transform="translate(336,346)"/>
<path d="M0 0 C0.495 0.33 0.99 0.66 1.5 1 C0.241875 1.185625 -1.01625 1.37125 -2.3125 1.5625 C-3.37404297 1.71912109 -3.37404297 1.71912109 -4.45703125 1.87890625 C-6.5 2 -6.5 2 -9.5 1 C-10.83106622 0.65772583 -12.16400079 0.32248257 -13.5 0 C-8.97258828 -1.50913724 -4.43573202 -1.77429281 0 0 Z " fill="#DAF0F5" transform="translate(121.5,141)"/>
<path d="M0 0 C0.33 0 0.66 0 1 0 C1.33 5.61 1.66 11.22 2 17 C1.01 17.33 0.02 17.66 -1 18 C-0.505 9.09 -0.505 9.09 0 0 Z " fill="#FDF2E9" transform="translate(170,298)"/>
<path d="M0 0 C1.98 0.99 1.98 0.99 4 2 C4 2.66 4 3.32 4 4 C5.98 4.66 7.96 5.32 10 6 C8.02 6.99 8.02 6.99 6 8 C5.67 7.01 5.34 6.02 5 5 C4.01 5 3.02 5 2 5 C1.34 3.35 0.68 1.7 0 0 Z " fill="#FACCC7" transform="translate(291,297)"/>
<path d="M0 0 C3.63 0 7.26 0 11 0 C7.09567131 1.95216435 4.27786748 2.50639991 0 3 C0 2.01 0 1.02 0 0 Z " fill="#FC0105" transform="translate(340,299)"/>
<path d="M0 0 C2.64 0 5.28 0 8 0 C8 0.66 8 1.32 8 2 C5.03 1.505 5.03 1.505 2 1 C1.67 2.32 1.34 3.64 1 5 C0.01 4.67 -0.98 4.34 -2 4 C-2 3.34 -2 2.68 -2 2 C-1.34 2 -0.68 2 0 2 C0 1.34 0 0.68 0 0 Z " fill="#EA0829" transform="translate(295,284)"/>
<path d="M0 0 C-1.41029874 2.82059747 -3.07891581 2.98101714 -6 4 C-7.32676508 4.35858516 -8.65835921 4.7018576 -10 5 C-5 -1.5 -5 -1.5 0 0 Z " fill="#1C66A2" transform="translate(128,258)"/>
<path d="M0 0 C0.99 0.33 1.98 0.66 3 1 C2.67 3.64 2.34 6.28 2 9 C1.67 8.34 1.34 7.68 1 7 C0.34 7 -0.32 7 -1 7 C-0.67 4.69 -0.34 2.38 0 0 Z " fill="#FBFAF0" transform="translate(73,157)"/>
<path d="M0 0 C2.64 0.66 5.28 1.32 8 2 C5 4 5 4 2.3125 3.625 C1.549375 3.41875 0.78625 3.2125 0 3 C0 2.01 0 1.02 0 0 Z " fill="#ED091C" transform="translate(275,354)"/>
<path d="M0 0 C1.32 0 2.64 0 4 0 C4.33 0.99 4.66 1.98 5 3 C2.69 3.33 0.38 3.66 -2 4 C-1.34 2.68 -0.68 1.36 0 0 Z " fill="#E9FDFA" transform="translate(275,347)"/>
<path d="M0 0 C1.32 0.66 2.64 1.32 4 2 C2.37660195 3.70884005 0.70680947 5.37446717 -1 7 C-1.66 7 -2.32 7 -3 7 C-2.625 5.0625 -2.625 5.0625 -2 3 C-1.34 2.67 -0.68 2.34 0 2 C0 1.34 0 0.68 0 0 Z " fill="#F8E2D6" transform="translate(216,327)"/>
<path d="M0 0 C1.65 0 3.3 0 5 0 C5 1.32 5 2.64 5 4 C3.35 3.67 1.7 3.34 0 3 C0 2.01 0 1.02 0 0 Z " fill="#ECFEFB" transform="translate(119,318)"/>
<path d="M0 0 C2.3125 -0.25 2.3125 -0.25 5 0 C6.8125 2 6.8125 2 8 4 C6.02 4 4.04 4 2 4 C1.34 2.68 0.68 1.36 0 0 Z " fill="#FA0119" transform="translate(301,286)"/>
<path d="M0 0 C0.99 0.33 1.98 0.66 3 1 C3 1.66 3 2.32 3 3 C4.65 3 6.3 3 8 3 C6.6875 4.5 6.6875 4.5 5 6 C4.01 6 3.02 6 2 6 C1.34 4.02 0.68 2.04 0 0 Z " fill="#C2DCEE" transform="translate(80,184)"/>
<path d="M0 0 C1.98 0.495 1.98 0.495 4 1 C4 2.98 4 4.96 4 7 C2.35 5.35 0.7 3.7 -1 2 C-0.67 1.34 -0.34 0.68 0 0 Z " fill="#0D5695" transform="translate(210,159)"/>
<path d="M0 0 C1 3 1 3 0 6 C-1.32 5.67 -2.64 5.34 -4 5 C-3.6875 3.0625 -3.6875 3.0625 -3 1 C-2.01 0.67 -1.02 0.34 0 0 Z " fill="#0157AF" transform="translate(214,154)"/>
<path d="M0 0 C0.2475 0.61875 0.495 1.2375 0.75 1.875 C2.20628639 4.35068687 3.37812506 4.95125002 6 6 C6 6.66 6 7.32 6 8 C4.35 8 2.7 8 1 8 C-0.35439668 5.29120665 -0.06501451 2.99066732 0 0 Z " fill="#174D82" transform="translate(283,272)"/>
<path d="M0 0 C0.66 0 1.32 0 2 0 C1.67 1.32 1.34 2.64 1 4 C1.66 4 2.32 4 3 4 C2.67 5.32 2.34 6.64 2 8 C1.34 8 0.68 8 0 8 C-0.98120464 4.94736336 -0.98120464 3.05263664 0 0 Z " fill="#0260B8" transform="translate(115,270)"/>
<path d="M0 0 C1.4606285 2.64738916 2 3.89448334 2 7 C1.34 7 0.68 7 0 7 C-0.33 8.32 -0.66 9.64 -1 11 C-1.125 3.375 -1.125 3.375 0 0 Z " fill="#C8E6EF" transform="translate(55,266)"/>
<path d="M0 0 C0.99 0 1.98 0 3 0 C3 2.31 3 4.62 3 7 C2.01 6.67 1.02 6.34 0 6 C0 4.02 0 2.04 0 0 Z " fill="#0150B0" transform="translate(72,177)"/>
<path d="M0 0 C1.32 0.66 2.64 1.32 4 2 C4 2.99 4 3.98 4 5 C3.01 5.33 2.02 5.66 1 6 C0.34 4.35 -0.32 2.7 -1 1 C-0.67 0.67 -0.34 0.34 0 0 Z " fill="#E7F6F8" transform="translate(79,178)"/>
<path d="M0 0 C0.33 0 0.66 0 1 0 C1 1.98 1 3.96 1 6 C-0.98 6.66 -2.96 7.32 -5 8 C-4.19185349 6.66402348 -3.37836819 5.331275 -2.5625 4 C-2.11003906 3.2575 -1.65757812 2.515 -1.19140625 1.75 C-0.79824219 1.1725 -0.40507812 0.595 0 0 Z " fill="#3064A1" transform="translate(360,156)"/>
<path d="M0 0 C2.86724686 0.57344937 3.8614515 0.8614515 6 3 C5.01 3.495 5.01 3.495 4 4 C4 4.99 4 5.98 4 7 C3.34 7 2.68 7 2 7 C2 5.35 2 3.7 2 2 C1.34 2 0.68 2 0 2 C0 1.34 0 0.68 0 0 Z " fill="#E81324" transform="translate(265,350)"/>
<path d="M0 0 C3.96 1.98 3.96 1.98 8 4 C6.02 4.99 6.02 4.99 4 6 C3.67 5.01 3.34 4.02 3 3 C2.01 3 1.02 3 0 3 C0 2.01 0 1.02 0 0 Z " fill="#E7152D" transform="translate(255,344)"/>
<path d="M0 0 C1.32 0.33 2.64 0.66 4 1 C-1.75 5 -1.75 5 -4 5 C-4 4.01 -4 3.02 -4 2 C-2.68 2 -1.36 2 0 2 C0 1.34 0 0.68 0 0 Z " fill="#FADFDA" transform="translate(209,334)"/>
<path d="M0 0 C0.33 0 0.66 0 1 0 C1 3.3 1 6.6 1 10 C0.01 10 -0.98 10 -2 10 C-1.33333333 6.66666667 -0.66666667 3.33333333 0 0 Z " fill="#EF1227" transform="translate(364,322)"/>
<path d="M0 0 C1.2065625 0.0309375 1.2065625 0.0309375 2.4375 0.0625 C2.4375 0.7225 2.4375 1.3825 2.4375 2.0625 C3.0975 2.3925 3.7575 2.7225 4.4375 3.0625 C2.6875 3.75 2.6875 3.75 0.4375 4.0625 C-1.8125 2.625 -1.8125 2.625 -3.5625 1.0625 C-2.5625 0.0625 -2.5625 0.0625 0 0 Z " fill="#E80229" transform="translate(308.5625,285.9375)"/>
<path d="M0 0 C0.99 0 1.98 0 3 0 C3 1.98 3 3.96 3 6 C2.01 6 1.02 6 0 6 C0 4.02 0 2.04 0 0 Z " fill="#00539F" transform="translate(162,206)"/>
<path d="M0 0 C2 1.375 2 1.375 4 3 C4 3.66 4 4.32 4 5 C3.01 5 2.02 5 1 5 C1 5.66 1 6.32 1 7 C0.01 7 -0.98 7 -2 7 C-1.67 6.01 -1.34 5.02 -1 4 C-0.34 3.67 0.32 3.34 1 3 C0.67 2.01 0.34 1.02 0 0 Z " fill="#034793" transform="translate(162,183)"/>
<path d="M0 0 C-6.75 3 -6.75 3 -9 3 C-8.67 2.01 -8.34 1.02 -8 0 C-5.04215769 -1.22393475 -3.00272755 -0.96516243 0 0 Z " fill="#D4EBF5" transform="translate(97,184)"/>
<path d="M0 0 C-1.25541557 2.51083114 -2.50063488 2.87125446 -5 4 C-5.33 3.34 -5.66 2.68 -6 2 C-6.66 1.67 -7.32 1.34 -8 1 C-4.93251126 -0.86240388 -3.40254489 -1.2151946 0 0 Z " fill="#1564A6" transform="translate(351,170)"/>
<path d="M0 0 C2.97 0 5.94 0 9 0 C8.67 0.66 8.34 1.32 8 2 C5.35139573 2.59355614 2.70802678 2.74209269 0 3 C0 2.01 0 1.02 0 0 Z " fill="#C5E0ED" transform="translate(335,170)"/>
<path d="M0 0 C2.5 2.3125 2.5 2.3125 5 5 C5 5.99 5 6.98 5 8 C2.5 6.8125 2.5 6.8125 0 5 C-0.3125 2.3125 -0.3125 2.3125 0 0 Z " fill="#BBDCE9" transform="translate(208,160)"/>
<path d="M0 0 C1.32 0 2.64 0 4 0 C3.67 1.65 3.34 3.3 3 5 C2.01 5 1.02 5 0 5 C0 3.35 0 1.7 0 0 Z " fill="#024BAC" transform="translate(361,156)"/>
<path d="M0 0 C2.03833424 1.2739589 4.03852126 2.61061923 6 4 C6 4.66 6 5.32 6 6 C3.97954558 5.39816251 1.97888961 4.72693904 0 4 C-0.33 3.34 -0.66 2.68 -1 2 C-0.67 1.34 -0.34 0.68 0 0 Z " fill="#F5C7BF" transform="translate(261,344)"/>
<path d="M0 0 C0.66 0.33 1.32 0.66 2 1 C0.515 3.475 0.515 3.475 -1 6 C-2.32 5.67 -3.64 5.34 -5 5 C-4.67 4.34 -4.34 3.68 -4 3 C-3.01 3 -2.02 3 -1 3 C-0.67 2.01 -0.34 1.02 0 0 Z " fill="#F2021B" transform="translate(206,340)"/>
<path d="M0 0 C2.02054804 1.64169528 4.02043058 3.30911778 6 5 C6 5.33 6 5.66 6 6 C4.35 6 2.7 6 1 6 C0.67 4.02 0.34 2.04 0 0 Z " fill="#E52439" transform="translate(244,334)"/>
<path d="M0 0 C2.5654594 2.5654594 2.54046087 4.47686668 3 8 C2.01 7.67 1.02 7.34 0 7 C-1.04449911 3.86650268 -0.93423645 3.01031744 0 0 Z " fill="#F6D4D2" transform="translate(113,302)"/>
<path d="M0 0 C1.32 0.66 2.64 1.32 4 2 C3.34 2 2.68 2 2 2 C2 2.66 2 3.32 2 4 C0.02 4 -1.96 4 -4 4 C-4 3.34 -4 2.68 -4 2 C-2.68 2 -1.36 2 0 2 C0 1.34 0 0.68 0 0 Z " fill="#0153B0" transform="translate(327,284)"/>
<path d="M0 0 C-0.33 0.99 -0.66 1.98 -1 3 C-2.98 3 -4.96 3 -7 3 C-7 2.34 -7 1.68 -7 1 C-4 0 -4 0 0 0 Z " fill="#EF0231" transform="translate(123,281)"/>
<path d="M0 0 C1.875 0.3125 1.875 0.3125 4 1 C4.66 1.99 5.32 2.98 6 4 C5.34 4 4.68 4 4 4 C3.67 4.66 3.34 5.32 3 6 C3 5.34 3 4.68 3 4 C2.34 3.67 1.68 3.34 1 3 C0.67 2.01 0.34 1.02 0 0 Z " fill="#0354AE" transform="translate(155,180)"/>
<path d="M0 0 C1.32 0 2.64 0 4 0 C3.6875 1.9375 3.6875 1.9375 3 4 C2.01 4.33 1.02 4.66 0 5 C0 3.35 0 1.7 0 0 Z " fill="#025BB1" transform="translate(218,167)"/>
<path d="M0 0 C0 0.66 0 1.32 0 2 C-6.0546875 2.9765625 -6.0546875 2.9765625 -8 3 C-8.66 2.34 -9.32 1.68 -10 1 C-6.56484998 0.37542727 -3.50935186 0 0 0 Z " fill="#0A4C92" transform="translate(199,143)"/>
<path d="M0 0 C2.64 0 5.28 0 8 0 C5.4345406 2.5654594 3.52313332 2.54046087 0 3 C0 2.01 0 1.02 0 0 Z " fill="#095390" transform="translate(97,141)"/>
<path d="M0 0 C0 3.17370278 -0.30933342 4.3794668 -2 7 C-4.125 8.25 -4.125 8.25 -6 9 C-4.47291037 5.56404834 -2.40072955 2.88087546 0 0 Z " fill="#B9D3E6" transform="translate(240,86)"/>
</svg>
