<?xml version="1.0" encoding="UTF-8"?>
<svg version="1.1" xmlns="http://www.w3.org/2000/svg" width="400" height="400">
<path d="M0 0 C0.83571533 0.00215515 1.67143066 0.0043103 2.5324707 0.00653076 C35.24625522 0.14170523 65.50224516 7.93638914 94.375 23.3125 C94.97022461 23.62413086 95.56544922 23.93576172 96.17871094 24.25683594 C109.40258172 31.22647224 121.32301461 40.1560593 132.24609375 50.33984375 C134.27592417 52.22069579 136.36597333 53.98932193 138.5 55.75 C139.44875 56.595625 140.3975 57.44125 141.375 58.3125 C141.375 58.9725 141.375 59.6325 141.375 60.3125 C142.365 60.6425 143.355 60.9725 144.375 61.3125 C147.15030811 64.2864498 149.60686536 67.51557804 152.11474609 70.71679688 C153.32433274 72.24834634 154.56202362 73.75757223 155.80078125 75.265625 C175.67130059 99.98493135 188.57346612 131.03490251 193.375 162.3125 C193.57867187 163.59769531 193.78234375 164.88289062 193.9921875 166.20703125 C199.33343274 203.75934571 193.79606367 241.7969239 178.375 276.3125 C178.06336914 277.0142334 177.75173828 277.7159668 177.43066406 278.43896484 C170.37921478 294.03796455 160.70821566 308.50103881 149.375 321.3125 C148.92157227 321.82619141 148.46814453 322.33988281 148.00097656 322.86914062 C115.43626211 359.54523186 69.66103913 384.358754 20.375 388.3125 C14.48410693 388.61672382 8.59210209 388.64296832 2.69458008 388.62817383 C0.07525862 388.62501538 -2.54292631 388.64858003 -5.16210938 388.67382812 C-20.64718087 388.73269052 -35.69720592 386.83895351 -50.625 382.625 C-51.53886475 382.36936279 -52.45272949 382.11372559 -53.39428711 381.8503418 C-74.23381639 375.79852662 -95.67566173 365.93295774 -112.625 352.3125 C-113.77318402 351.42506705 -114.92303918 350.53979365 -116.07421875 349.65625 C-124.91998383 342.83665603 -133.59664909 335.99526798 -140.82421875 327.421875 C-142.79667787 325.11140227 -144.86515182 322.90865076 -146.9375 320.6875 C-160.5121178 305.59178751 -170.51559964 287.82167096 -178.625 269.3125 C-179.31722656 267.75015625 -179.31722656 267.75015625 -180.0234375 266.15625 C-199.17255076 219.80807777 -197.52431499 165.33206682 -178.625 119.3125 C-176.23739712 113.82405341 -173.49784349 108.55920526 -170.625 103.3125 C-169.89557797 101.94154208 -169.16641687 100.57044532 -168.4375 99.19921875 C-163.83789096 90.66841429 -158.7366201 82.86334075 -152.625 75.3125 C-151.41263672 73.79462891 -151.41263672 73.79462891 -150.17578125 72.24609375 C-134.23999944 52.64750582 -115.69135265 36.60276254 -93.625 24.3125 C-92.96564453 23.93641602 -92.30628906 23.56033203 -91.62695312 23.17285156 C-76.89669762 14.79668626 -61.78045304 9.19019329 -45.375 5 C-44.43003662 4.75741455 -43.48507324 4.5148291 -42.51147461 4.26489258 C-28.35538268 0.82171623 -14.49186182 -0.0674191 0 0 Z " fill="#E32527" transform="translate(198.625,2.6875)"/>
<path d="M0 0 C2.98093169 4.30779546 2.4183817 8.75246406 2.39404297 13.86816406 C2.40583588 14.96281982 2.41762878 16.05747559 2.42977905 17.18530273 C2.46509796 20.68390086 2.47421486 24.18190209 2.47998047 27.68066406 C2.49631552 31.17924677 2.51834501 34.67756165 2.55160522 38.17602539 C2.57125167 40.3528758 2.58056834 42.52984901 2.57852173 44.70678711 C2.58548065 45.69461182 2.59243958 46.68243652 2.59960938 47.70019531 C2.60086823 48.56749268 2.60212708 49.43479004 2.60342407 50.32836914 C2.8806597 52.92078963 3.40674559 54.51583793 4.85498047 56.68066406 C8.02726386 57.73809186 10.3070424 57.81770495 13.63989258 57.83837891 C14.82800034 57.84864105 16.01610809 57.8589032 17.24021912 57.86947632 C19.16681114 57.88042831 19.16681114 57.88042831 21.13232422 57.89160156 C23.14596452 57.9124801 25.15960481 57.93337592 27.17323399 57.95530128 C32.14317217 58.00848132 37.11311473 58.05271267 42.08325195 58.08203125 C44.87160691 58.09892122 47.6596839 58.12360282 50.44789124 58.15689087 C53.07541149 58.18792643 55.7031002 58.20729331 58.33079529 58.21395874 C59.52205521 58.23052521 60.71331512 58.24709167 61.94067383 58.26416016 C62.98863632 58.27224701 64.03659882 58.28033386 65.11631775 58.28866577 C68.24715515 58.73679796 69.61212853 59.47939696 71.85498047 61.68066406 C73.62754067 66.99834467 73.08229998 72.67793819 73.10498047 78.24316406 C73.13591797 80.10038086 73.13591797 80.10038086 73.16748047 81.99511719 C73.21810624 93.9491286 71.42788639 102.9910065 62.85498047 111.68066406 C53.50674839 119.60020407 42.1218589 122.67765426 30.06591797 122.92675781 C28.15939453 122.97606445 28.15939453 122.97606445 26.21435547 123.02636719 C24.21538487 123.0724219 22.21640503 123.11842918 20.21728516 123.1574707 C18.27080832 123.19724819 16.32459557 123.24934551 14.37841797 123.30175781 C13.2226123 123.32681396 12.06680664 123.35187012 10.87597656 123.37768555 C7.97118248 123.66901005 6.26646765 124.0757336 3.85498047 125.68066406 C2.2957567 128.79911159 2.70770298 132.1127332 2.7097168 135.53588867 C2.70635818 136.347565 2.70299957 137.15924133 2.69953918 137.99551392 C2.69000677 140.69136063 2.68808425 143.38714527 2.68701172 146.08300781 C2.68379829 147.95951869 2.68043415 149.83602932 2.67692566 151.71253967 C2.67092697 155.65610331 2.66908627 159.59964501 2.66967773 163.54321289 C2.66977884 168.57319135 2.65618329 173.603027 2.63890553 178.63297176 C2.62772629 182.51512789 2.62576042 186.39725029 2.62628746 190.27942085 C2.62511408 192.13198903 2.62072868 193.98455828 2.61295509 195.83711052 C2.01014156 215.64431611 2.01014156 215.64431611 10.85498047 232.68066406 C20.16004278 240.16050262 29.5750289 238.94982927 40.94482422 238.17285156 C42.01973618 238.09940521 42.01973618 238.09940521 43.11636353 238.0244751 C46.1043756 237.8176226 49.09206812 237.60816694 52.07885742 237.38427734 C54.28361611 237.22068088 56.48896174 237.07070683 58.69482422 236.92285156 C60.64956665 236.78145752 60.64956665 236.78145752 62.64379883 236.63720703 C65.85498047 236.68066406 65.85498047 236.68066406 68.85498047 238.68066406 C69.1725518 241.33176107 69.2990243 243.74470005 69.28857422 246.39941406 C69.29381607 247.17192505 69.29905792 247.94443604 69.30445862 248.74035645 C69.31089193 250.38125406 69.30952491 252.02219772 69.30102539 253.66308594 C69.29260568 256.14377282 69.3211061 258.62208538 69.35302734 261.10253906 C69.39745552 271.1270415 68.78737278 279.65451503 62.60498047 287.99316406 C56.66754934 293.79565357 49.79392502 296.77627368 41.97998047 299.30566406 C41.06595459 299.6041626 40.15192871 299.90266113 39.21020508 300.21020508 C13.81887284 308.20943095 -12.06303876 307.67768833 -36.10693359 295.70361328 C-54.91220973 285.81179344 -67.26786816 271.92231423 -73.85986328 251.46191406 C-75.92902185 243.84982706 -76.27675105 235.89872896 -76.53393555 228.05249023 C-76.56332529 227.23541879 -76.59271503 226.41834734 -76.62299538 225.57651615 C-76.71881362 222.87567321 -76.80920764 220.17468486 -76.89892578 217.47363281 C-76.96501147 215.54034354 -77.03111813 213.60705498 -77.09724426 211.67376709 C-77.30900889 205.40549346 -77.50962488 199.13688918 -77.70751953 192.86816406 C-77.74131966 191.80330402 -77.77511978 190.73844398 -77.80994415 189.64131546 C-78.75310992 159.77828272 -79.46884773 129.92431832 -79.51472092 100.04535294 C-79.5199809 97.63586161 -79.53081946 95.22645148 -79.54299927 92.81698608 C-79.56057256 89.04035201 -79.56117963 85.26408364 -79.54804039 81.48743439 C-79.54367916 79.49689203 -79.55223196 77.50633377 -79.56147766 75.51580811 C-79.41249067 56.12932879 -74.34328364 39.39833982 -60.61523438 25.11865234 C-48.79301705 13.55557362 -17.1018076 -10.51879903 0 0 Z " fill="#FEFEFE" transform="translate(206.14501953125,45.3193359375)"/>
</svg>
